<svg width="12" height="21" viewBox="0 0 12 21" fill="none" xmlns="http://www.w3.org/2000/svg">
<path d="M3.61483 10.4956L11.551 2.56897C11.6924 2.43011 11.805 2.26458 11.882 2.08195C11.9591 1.89931 11.9992 1.70321 12 1.50498C12.0008 1.30675 11.9622 1.11033 11.8866 0.927095C11.811 0.74386 11.6997 0.577447 11.5593 0.437486C11.419 0.297524 11.2522 0.186795 11.0688 0.111707C10.8853 0.0366191 10.6888 -0.00133686 10.4905 3.59511e-05C10.2923 0.00140876 10.0963 0.0420832 9.91392 0.119705C9.73152 0.197327 9.56632 0.310355 9.42789 0.452247L0.436581 9.43403C0.164737 9.70668 0.00848528 10.0736 0.000335532 10.4586C-0.00781421 10.8435 0.132766 11.2167 0.392826 11.5007L9.42155 20.5478C9.55998 20.6896 9.72518 20.8027 9.90758 20.8803C10.09 20.9579 10.286 20.9986 10.4842 21C10.6824 21.0013 10.879 20.9634 11.0624 20.8883C11.2459 20.8132 11.4126 20.7025 11.553 20.5625C11.6934 20.4226 11.8046 20.2561 11.8802 20.0729C11.9559 19.8897 11.9944 19.6933 11.9936 19.495C11.9929 19.2968 11.9528 19.1007 11.8757 18.9181C11.7986 18.7354 11.6861 18.5699 11.5446 18.431L3.61483 10.4956Z" fill="#747C8B"/>
</svg>
