<svg width="7" height="28" viewBox="0 0 7 28" fill="none" xmlns="http://www.w3.org/2000/svg">
<g filter="url(#filter0_i)">
<path d="M1.31008 3.64327H5.60833C6.01769 3.64327 6.34517 3.31579 6.34517 2.90644V0.736837C6.34517 0.32748 6.01769 0 5.60833 0H1.31008C0.900726 0 0.573242 0.32748 0.573242 0.736837V2.90644C0.573242 3.31579 0.900726 3.64327 1.31008 3.64327Z" fill="#828EA5"/>
<path d="M1.35052 9.16987C1.02304 10.0295 0.859295 10.971 0.818359 11.8716H6.14C6.09906 10.9301 5.89438 10.0295 5.60783 9.16987C4.29789 5.19911 4.74818 3.64355 4.74818 3.64355H2.21017C2.16924 3.64355 2.61953 5.24005 1.35052 9.16987Z" fill="#828EA5"/>
<path d="M5.81287 14.3682C5.97661 13.7132 6.09942 13.0582 6.14035 12.3623H0.818714C0.859649 13.0173 0.941522 13.7132 1.1462 14.3682C1.63743 16.2921 0 18.298 0 22.6781C0 27.0173 2.74269 27.6722 3.47953 27.6722H3.52047C4.25731 27.6722 7 27.0582 7 22.6781C6.95906 18.298 5.32164 16.3331 5.81287 14.3682Z" fill="#828EA5"/>
</g>
<defs>
<filter id="filter0_i" x="0" y="0" width="7.5" height="29.6722" filterUnits="userSpaceOnUse" color-interpolation-filters="sRGB">
<feFlood flood-opacity="0" result="BackgroundImageFix"/>
<feBlend mode="normal" in="SourceGraphic" in2="BackgroundImageFix" result="shape"/>
<feColorMatrix in="SourceAlpha" type="matrix" values="0 0 0 0 0 0 0 0 0 0 0 0 0 0 0 0 0 0 127 0" result="hardAlpha"/>
<feOffset dx="0.5" dy="2"/>
<feGaussianBlur stdDeviation="1"/>
<feComposite in2="hardAlpha" operator="arithmetic" k2="-1" k3="1"/>
<feColorMatrix type="matrix" values="0 0 0 0 0 0 0 0 0 0 0 0 0 0 0 0 0 0 0.25 0"/>
<feBlend mode="normal" in2="shape" result="effect1_innerShadow"/>
</filter>
</defs>
</svg>
