<svg width="20" height="19" viewBox="0 0 20 19" fill="none" xmlns="http://www.w3.org/2000/svg">
<path d="M10.0078 18.9996C7.69458 18.9996 5.38136 19.0059 3.06814 18.9996C1.47389 18.9933 0.29852 18.0115 0.0359376 16.4696C-0.0765976 15.8276 0.0546934 15.2172 0.361039 14.6445C1.53015 12.4795 2.69927 10.3146 3.86213 8.14961C5.05 5.94689 6.23162 3.74417 7.432 1.54775C8.35104 -0.132606 10.4892 -0.516508 11.9272 0.742187C12.1897 0.968753 12.4148 1.26455 12.5836 1.57293C14.9281 5.88396 17.2413 10.2139 19.5983 14.5249C20.6361 16.4255 19.5108 18.5338 17.7165 18.9177C17.4351 18.9807 17.135 18.9996 16.8474 18.9996C14.5717 18.9996 12.2898 18.9996 10.0078 18.9996ZM11.1832 8.96776C11.1832 7.99227 11.1957 7.01678 11.1769 6.04129C11.1644 5.33642 10.658 4.83295 10.0016 4.83295C9.3576 4.83295 8.83869 5.33013 8.83244 6.01612C8.81993 7.97968 8.81993 9.93695 8.83244 11.9005C8.83244 12.4418 9.17004 12.8697 9.63894 13.0208C10.4267 13.2725 11.1644 12.7124 11.1769 11.825C11.1957 10.8747 11.1832 9.92437 11.1832 8.96776ZM10.0141 16.6206C10.658 16.6143 11.1894 16.0731 11.1832 15.4375C11.1707 14.7892 10.6393 14.2732 9.98905 14.2795C9.3576 14.2857 8.83869 14.8144 8.83869 15.45C8.83244 16.092 9.37011 16.6269 10.0141 16.6206Z" fill="#828EA5"/>
</svg>
