<svg width="15" height="16" viewBox="0 0 15 16" fill="none" xmlns="http://www.w3.org/2000/svg">
<path d="M6.9411 16.0004C4.86034 16.0004 2.77957 16.001 0.698806 16.0004C0.18091 16.0004 -0.0045772 15.8236 0.000932328 15.3051C0.0113392 14.2793 -0.0315127 13.248 0.0633737 12.2294C0.250086 10.2271 2.12394 8.56274 4.14349 8.54627C5.97938 8.53103 7.81528 8.53591 9.65118 8.542C11.9835 8.54932 13.8739 10.3839 13.94 12.7155C13.9651 13.609 13.9492 14.5043 13.9437 15.3991C13.9413 15.8059 13.7301 15.9998 13.3058 15.9998C11.1841 16.001 9.06288 16.0004 6.9411 16.0004Z" fill="#828EA5"/>
<path d="M6.98712 7.45719C4.87268 7.45658 3.22778 5.81291 3.23145 3.7039C3.23451 1.64611 4.89778 0 6.97365 0C9.07462 0 10.7165 1.65343 10.7146 3.76793C10.7128 5.80316 9.04034 7.45841 6.98712 7.45719Z" fill="#828EA5"/>
<path d="M13.4015 6.93356C13.4015 7.29461 13.4057 7.61786 13.4002 7.94049C13.3941 8.2985 13.1603 8.54734 12.8487 8.5388C12.5499 8.53087 12.3418 8.29179 12.3314 7.93622C12.3228 7.63189 12.3228 7.32755 12.3173 7.02321C12.3167 7.00552 12.3008 6.98845 12.272 6.93356C11.9886 6.93356 11.6862 6.93417 11.3837 6.93356C10.9779 6.93234 10.7067 6.70911 10.7171 6.38526C10.7269 6.06628 10.9791 5.86685 11.3776 5.86502C11.6813 5.8638 11.9843 5.86502 12.3302 5.86502C12.3302 5.52165 12.3265 5.20999 12.3308 4.89894C12.3369 4.49092 12.5346 4.26648 12.875 4.27258C13.2135 4.27868 13.4002 4.50617 13.4008 4.91602C13.4015 5.21914 13.4008 5.52226 13.4008 5.86563C13.743 5.86563 14.065 5.86319 14.387 5.86624C14.7733 5.8699 14.9968 6.06445 14.9986 6.39258C15.0004 6.7207 14.7837 6.92136 14.3962 6.93234C14.0822 6.94088 13.7669 6.93356 13.4015 6.93356Z" fill="#828EA5"/>
</svg>
