<svg width="20" height="24" viewBox="0 0 20 24" fill="none" xmlns="http://www.w3.org/2000/svg">
<g filter="url(#filter0_i)">
<path d="M9.49909 23.009C6.94605 23.009 4.40645 23.009 1.85341 23.009C1.19499 23.009 0.953125 22.7645 0.953125 22.0988C0.953125 21.0392 0.953125 19.9659 0.953125 18.9063C0.966562 16.4337 2.96868 14.4095 5.41423 14.3959C8.12851 14.3823 10.8428 14.3823 13.5571 14.3959C16.0026 14.4095 18.0048 16.4337 18.0182 18.9063C18.0182 19.9795 18.0182 21.0663 18.0182 22.1396C18.0182 22.7781 17.7629 23.0226 17.1313 23.0226C14.5917 23.009 12.0387 23.009 9.49909 23.009Z" fill="#828EA5"/>
<path d="M9.484 12.4664C6.86378 12.4664 4.72728 10.3063 4.75416 7.65719C4.76759 4.99447 6.89065 2.87515 9.52431 2.88874C12.1177 2.88874 14.2407 5.03522 14.2407 7.68437C14.2407 10.3199 12.1042 12.4664 9.484 12.4664Z" fill="#828EA5"/>
<path d="M18.9736 3.63597C18.9736 3.96202 18.987 4.28807 18.9736 4.60053C18.9467 5.14394 18.5302 5.52433 18.0195 5.51075C17.5224 5.49716 17.1193 5.13036 17.1058 4.60053C17.079 4.11146 17.0924 3.62239 17.0924 3.13331C17.0924 2.26385 16.7699 1.9378 15.9234 1.92422C15.5606 1.92422 15.1843 1.9378 14.8215 1.92422C14.19 1.91063 13.7734 1.51666 13.7734 0.946071C13.7869 0.389072 14.2034 0.00868176 14.8484 0.00868176C15.4531 0.00868176 16.0712 -0.0320743 16.649 0.0630232C18.0195 0.307559 18.9333 1.42156 18.9736 2.83443C18.9736 3.10614 18.9736 3.37785 18.9736 3.63597Z" fill="#828EA5"/>
<path d="M3.46676 0.00976562C3.74894 0.00976562 4.03112 0.00976562 4.3133 0.00976562C4.79703 0.023351 5.1867 0.417326 5.21358 0.892813C5.24045 1.38189 4.91796 1.8302 4.43423 1.88454C3.96393 1.93889 3.49364 1.91171 3.0099 1.9253C2.24399 1.93889 1.90806 2.27852 1.89463 3.05288C1.89463 3.51479 1.89463 3.99027 1.89463 4.45218C1.88119 5.10427 1.50495 5.52542 0.940594 5.51183C0.376238 5.51183 0.0134371 5.09069 0 4.425C0.0134371 3.92235 0.0134371 3.4061 0.0134371 2.88986C0.0537482 1.23245 1.27652 0.00976562 2.92928 0.00976562C3.10396 0.00976562 3.29208 0.00976562 3.46676 0.00976562Z" fill="#828EA5"/>
<path d="M0.0255033 9.81708C0.0255033 9.49103 0.0120662 9.16498 0.0255033 8.85252C0.0523774 8.3091 0.442052 7.92871 0.966097 7.92871C1.47671 7.92871 1.87982 8.3091 1.90669 8.85252C1.93357 9.36876 1.90669 9.885 1.92013 10.4012C1.93357 11.162 2.28293 11.5288 3.02197 11.5288C3.43852 11.5288 3.85506 11.5288 4.25818 11.5288C4.79566 11.5424 5.19877 11.9228 5.22564 12.4255C5.25252 12.9417 4.90316 13.4036 4.36567 13.4172C3.65351 13.4444 2.94134 13.4715 2.24262 13.3493C1.00641 13.1319 0.106126 12.0179 0.0255033 10.7409C0.0120662 10.442 0.0255033 10.1295 0.0255033 9.81708Z" fill="#828EA5"/>
<path d="M19.012 9.85774C18.9583 10.3468 18.9717 10.8495 18.8642 11.3114C18.5417 12.5612 17.4802 13.3763 16.1365 13.4171C15.6931 13.4307 15.2362 13.4307 14.7928 13.4171C14.1612 13.4035 13.7447 12.996 13.7581 12.4254C13.7716 11.882 14.2016 11.5016 14.8062 11.5016C15.2093 11.5016 15.6124 11.5016 16.0156 11.5016C16.7008 11.5016 17.0636 11.1348 17.0771 10.4419C17.0905 9.8985 17.0636 9.3415 17.0905 8.79809C17.1174 8.28184 17.5339 7.91504 18.0311 7.91504C18.5148 7.91504 18.9045 8.28184 18.9583 8.7845C18.9717 8.96111 18.9717 9.13772 18.9717 9.32792C18.9717 9.50452 18.9717 9.68113 18.9717 9.87133C18.9851 9.85774 18.9986 9.85774 19.012 9.85774Z" fill="#828EA5"/>
</g>
<defs>
<filter id="filter0_i" x="0" y="0" width="19.512" height="25.0226" filterUnits="userSpaceOnUse" color-interpolation-filters="sRGB">
<feFlood flood-opacity="0" result="BackgroundImageFix"/>
<feBlend mode="normal" in="SourceGraphic" in2="BackgroundImageFix" result="shape"/>
<feColorMatrix in="SourceAlpha" type="matrix" values="0 0 0 0 0 0 0 0 0 0 0 0 0 0 0 0 0 0 127 0" result="hardAlpha"/>
<feOffset dx="0.5" dy="2"/>
<feGaussianBlur stdDeviation="1"/>
<feComposite in2="hardAlpha" operator="arithmetic" k2="-1" k3="1"/>
<feColorMatrix type="matrix" values="0 0 0 0 0 0 0 0 0 0 0 0 0 0 0 0 0 0 0.25 0"/>
<feBlend mode="normal" in2="shape" result="effect1_innerShadow"/>
</filter>
</defs>
</svg>
