<svg width="20" height="12" viewBox="0 0 20 12" fill="none" xmlns="http://www.w3.org/2000/svg">
<path d="M4.39878 1.25196C4.39878 0.821684 4.39878 0.453461 4.39878 0C5.46467 0.754177 6.46053 1.45926 7.50284 2.19775C6.4713 2.92874 5.47073 3.63791 4.39339 4.40095C4.39339 3.93795 4.39339 3.57109 4.39339 3.18104C3.54567 3.18104 2.74306 3.18104 1.91014 3.18104C1.91014 5.04466 1.91014 6.91169 1.91014 8.83328C2.03673 8.83328 2.16601 8.83328 2.29529 8.83328C4.5624 8.83328 6.82884 8.83328 9.09595 8.83328C9.85884 8.83328 10.013 8.9867 10.0137 9.7402C10.0144 10.6294 9.91001 10.7344 9.02862 10.7344C6.5824 10.7344 4.13618 10.7351 1.68929 10.7344C0.634851 10.7337 -0.000774793 10.0873 -0.00144813 9.01602C-0.00212146 7.00443 -0.00212146 4.99284 -0.00144813 2.98125C-0.00010146 1.89499 0.638218 1.25332 1.7169 1.25196C2.46901 1.25128 3.22045 1.25196 3.97256 1.25196C4.09309 1.25196 4.21294 1.25196 4.39878 1.25196Z" fill="#828EA5"/>
<path d="M18.0919 3.15649C17.7775 3.15649 17.4873 3.15649 17.1971 3.15649C15.0875 3.15649 12.9786 3.15786 10.8691 3.15377C10.7035 3.15377 10.5344 3.12854 10.3735 3.08762C10.082 3.0133 9.98232 2.78213 10.0214 2.5121C10.0799 2.10569 9.79176 1.59563 10.3331 1.32697C10.4476 1.27037 10.593 1.25537 10.7237 1.25469C13.3039 1.25059 15.8848 1.24923 18.465 1.254C19.3235 1.25537 19.9941 1.94067 19.9961 2.81623C20.0008 4.94102 20.0015 7.0658 19.9954 9.19059C19.9934 10.0491 19.3262 10.7242 18.4818 10.7324C17.6401 10.7399 16.7985 10.7453 15.9575 10.7289C15.6848 10.7235 15.5986 10.8142 15.6174 11.0815C15.637 11.3597 15.6222 11.64 15.6222 12C14.5643 11.2513 13.5692 10.5469 12.506 9.79407C13.5503 9.05353 14.5495 8.34504 15.6228 7.58405C15.6228 7.9775 15.606 8.28026 15.6329 8.57825C15.641 8.66894 15.771 8.81964 15.8477 8.821C16.5857 8.83942 17.325 8.83192 18.0913 8.83192C18.0919 6.93761 18.0919 5.07058 18.0919 3.15649Z" fill="#828EA5"/>
</svg>
