<svg width="20" height="12" viewBox="0 0 20 12" fill="none" xmlns="http://www.w3.org/2000/svg">
<path d="M6.71255 11.8163C5.24981 11.8163 3.78588 11.8187 2.32315 11.8152C0.903331 11.8128 0.000894092 10.9059 0.000894092 9.48548C-0.000298031 7.09282 -0.000298031 4.70015 0.000894092 2.30629C0.000894092 0.944147 0.929558 0.0158443 2.29096 0.0158443C5.22954 0.0146557 8.16813 0.050314 11.1055 0.000392434C12.5337 -0.0233797 13.5351 1.03567 13.5136 2.41445C13.4755 4.75958 13.5041 7.1047 13.5029 9.44982C13.5017 10.9106 12.5981 11.814 11.1389 11.8175C10.401 11.8187 9.66424 11.8163 8.92632 11.8152C8.18839 11.8163 7.45047 11.8163 6.71255 11.8163Z" fill="#828EA5"/>
<path d="M19.9969 5.91669C19.9969 7.01853 20.0005 8.11918 19.9957 9.22102C19.991 10.3347 18.9705 10.9552 18.0025 10.4168C16.9201 9.81532 15.8507 9.18893 14.7838 8.55897C14.6872 8.50191 14.5966 8.33907 14.5954 8.22378C14.5847 6.67978 14.5847 5.13459 14.6002 3.59058C14.6014 3.46935 14.7075 3.29938 14.8148 3.23638C15.8674 2.60642 16.926 1.98596 17.993 1.37977C18.9419 0.841335 19.9886 1.46892 19.9945 2.57551C20.0029 3.68924 19.9969 4.80296 19.9969 5.91669Z" fill="#828EA5"/>
</svg>
