<svg width="64" height="64" viewBox="0 0 64 64" fill="none" xmlns="http://www.w3.org/2000/svg">
<g filter="url(#filter0_d)">
<rect x="8" y="9" width="44" height="44" rx="22" stroke="url(#paint0_linear)" stroke-width="2.5"/>
</g>
<g filter="url(#filter1_i)">
<path d="M32.3206 36.2805C30.7984 37.4057 29.2762 37.5601 27.6877 36.4129C27.6216 36.81 27.5995 37.1189 27.5333 37.4277C27.2245 38.9058 26.0331 39.8765 24.6212 39.8545C24.2241 39.8545 23.9373 39.6118 23.9153 39.2588C23.8932 38.9279 24.1579 38.619 24.533 38.5749C25.8567 38.3764 26.342 37.7807 26.3641 36.457C26.3861 35.8393 26.3199 35.3098 25.7684 34.9348C25.614 34.8245 25.5037 34.648 25.3713 34.4936C24.908 33.8759 24.555 33.192 23.8932 32.7066C23.6505 32.5301 23.5182 32.1551 23.3858 31.8683C23.2975 31.6697 23.1872 31.6035 22.9666 31.6035C22.1062 31.6256 21.2238 31.6035 20.3634 31.6035C20.0325 31.6035 19.7898 31.4712 19.7015 31.1402C19.6133 30.8314 19.7236 30.5667 20.0104 30.4122C20.1428 30.3681 20.2972 30.3681 20.4516 30.3681C21.2238 30.3681 22.018 30.346 22.7901 30.3681C23.0328 30.3681 23.121 30.3019 23.1431 30.0372C23.1872 29.4636 23.4078 28.9341 23.8049 28.4708C23.8932 28.3605 23.9594 28.2061 23.9594 28.0737C24.1138 24.8969 26.2317 22.5143 29.3644 22.1613C32.4309 21.8083 35.0783 23.7056 35.8505 26.6397C35.9828 27.103 35.9828 27.5884 36.0711 28.0517C36.0931 28.184 36.1372 28.3385 36.2255 28.4488C36.6226 28.912 36.8432 29.4415 36.8873 30.0372C36.9094 30.2799 36.9976 30.346 37.2183 30.346C38.0345 30.346 38.8508 30.346 39.6671 30.346C40.1745 30.346 40.4833 30.7873 40.3068 31.2285C40.1745 31.5153 39.9539 31.6256 39.645 31.6256C38.7846 31.6256 37.9242 31.6256 37.0638 31.6256C36.8212 31.6256 36.7108 31.7138 36.6447 31.9124C36.402 32.5301 36.0049 33.0375 35.3872 33.3464C35.2989 33.3905 35.2107 33.5008 35.1445 33.5891C34.7253 34.0965 34.3062 34.5818 33.9091 35.0892C33.7987 35.2216 33.7105 35.3981 33.7105 35.5525C33.6884 36.0599 33.6884 36.5894 33.7546 37.0968C33.8649 37.9131 34.5488 38.4867 35.3872 38.5529C36.0049 38.597 36.3358 39.0382 36.0711 39.5015C35.9387 39.7442 35.7181 39.8545 35.4533 39.8545C33.9973 39.8765 32.828 38.8838 32.5412 37.3616C32.4089 37.0306 32.3868 36.6997 32.3206 36.2805ZM24.4006 30.346C28.151 30.346 31.8353 30.346 35.5637 30.346C35.5637 29.9048 35.4533 29.5077 35.1004 29.243C34.8356 29.0444 34.7474 28.8238 34.7474 28.5149C34.7474 28.2061 34.7474 27.8972 34.7474 27.5884C34.615 27.5884 34.5488 27.5663 34.4826 27.5663C33.0487 27.6546 31.7029 27.3457 30.4895 26.5735C30.3131 26.4632 30.2248 26.5515 30.1145 26.6397C28.8349 27.7428 27.3568 28.2943 25.636 28.2502C25.5037 28.2502 25.3713 28.2502 25.2389 28.2502C25.261 28.2723 25.3051 28.3164 25.3272 28.3385C25.1948 28.6253 25.1066 28.9782 24.886 29.1768C24.5771 29.5077 24.4227 29.8607 24.4006 30.346ZM35.2989 31.78C35.2769 31.7359 35.2548 31.7138 35.2327 31.6697C31.747 31.6697 28.2393 31.6697 24.7536 31.6697C24.7315 31.6918 24.7095 31.7359 24.6874 31.758C24.8639 31.9124 25.0624 32.0668 25.2389 32.2213C25.3934 32.3757 25.614 32.5081 25.7022 32.6845C26.4744 34.2068 27.7319 35.1554 29.2541 35.8173C29.6953 35.9937 30.1145 35.9937 30.5557 35.7952C32.0338 35.1113 33.2693 34.1185 34.1297 32.7066C34.24 32.5081 34.4826 32.3757 34.6812 32.2433C34.8798 32.0668 35.1004 31.9124 35.2989 31.78ZM25.4154 26.9265C27.6657 27.2795 30.2027 25.5367 30.6881 23.507C28.5261 23.0437 26.0111 24.5439 25.4154 26.9265ZM34.3503 26.2647C33.8429 25.1616 33.0707 24.3895 32.0118 23.8821C31.747 24.4336 31.4602 24.9631 31.1955 25.5146C32.1662 26.0882 33.181 26.3529 34.3503 26.2647Z" fill="#828EA5"/>
<path d="M39.6916 21.3C38.9857 21.3 38.3459 21.3 37.684 21.3C37.3752 21.3 37.1325 21.1456 37.0222 20.8588C36.9339 20.594 37.0001 20.3514 37.2207 20.1749C37.3311 20.0866 37.5075 20.0205 37.662 20.0205C38.5444 19.9984 39.4269 19.9984 40.3093 20.0205C40.7506 20.0205 40.9932 20.2631 40.9932 20.7044C40.9932 21.5647 40.9932 22.4472 40.9932 23.3076C40.9932 23.7268 40.7285 23.9915 40.3535 23.9915C39.9784 23.9915 39.7137 23.7047 39.6916 23.3076C39.6916 22.6458 39.6916 22.006 39.6916 21.3Z" fill="#828EA5"/>
<path d="M20.3016 40.6927C20.9635 40.6927 21.5812 40.6927 22.1989 40.6927C22.6842 40.6927 22.9931 40.9574 22.9931 41.3545C22.9931 41.7516 22.7063 41.9943 22.221 41.9943C21.4047 41.9943 20.5664 41.9943 19.7501 41.9943C19.2427 41.9943 19 41.7516 19 41.2663C19 40.4279 19 39.5675 19 38.7292C19 38.31 19.2427 38.0233 19.6177 38.0012C19.9928 37.9791 20.2796 38.2659 20.3016 38.7072C20.3016 39.3469 20.3016 40.0088 20.3016 40.6927Z" fill="#828EA5"/>
<path d="M39.6954 40.6926C39.6954 40.0087 39.6954 39.3469 39.6954 38.7071C39.6954 38.1556 40.2469 37.8026 40.6661 38.0894C40.8426 38.1997 40.975 38.4644 40.975 38.685C41.0191 39.5454 40.997 40.4279 40.997 41.2883C40.997 41.7295 40.7323 41.9722 40.2911 41.9942C39.4307 41.9942 38.5703 41.9942 37.7099 41.9942C37.2907 41.9942 37.0039 41.7295 37.0039 41.3545C37.0039 40.9794 37.2907 40.6926 37.7099 40.6926C38.3717 40.6926 39.0115 40.6926 39.6954 40.6926Z" fill="#828EA5"/>
<path d="M20.3016 21.3016C20.3016 21.9855 20.3016 22.6474 20.3016 23.2871C20.3016 23.596 20.1693 23.8387 19.8604 23.949C19.5957 24.0372 19.353 23.9931 19.1765 23.7725C19.0882 23.6401 19.0221 23.4636 19 23.3092C19 22.4267 19 21.5664 19 20.706C19 20.2427 19.2647 20 19.728 20C20.5664 20 21.4267 20 22.2871 20C22.7063 20 22.9931 20.2647 22.9931 20.6398C22.9931 21.0148 22.7284 21.3016 22.3092 21.3016C21.6474 21.3016 21.0076 21.3016 20.3016 21.3016Z" fill="#828EA5"/>
</g>
<defs>
<filter id="filter0_d" x="0.75" y="0.75" width="62.5" height="62.5" filterUnits="userSpaceOnUse" color-interpolation-filters="sRGB">
<feFlood flood-opacity="0" result="BackgroundImageFix"/>
<feColorMatrix in="SourceAlpha" type="matrix" values="0 0 0 0 0 0 0 0 0 0 0 0 0 0 0 0 0 0 127 0" result="hardAlpha"/>
<feOffset dx="2" dy="1"/>
<feGaussianBlur stdDeviation="4"/>
<feColorMatrix type="matrix" values="0 0 0 0 1 0 0 0 0 1 0 0 0 0 1 0 0 0 1 0"/>
<feBlend mode="normal" in2="BackgroundImageFix" result="effect1_dropShadow"/>
<feBlend mode="normal" in="SourceGraphic" in2="effect1_dropShadow" result="shape"/>
</filter>
<filter id="filter1_i" x="19" y="20" width="22.5025" height="23.9943" filterUnits="userSpaceOnUse" color-interpolation-filters="sRGB">
<feFlood flood-opacity="0" result="BackgroundImageFix"/>
<feBlend mode="normal" in="SourceGraphic" in2="BackgroundImageFix" result="shape"/>
<feColorMatrix in="SourceAlpha" type="matrix" values="0 0 0 0 0 0 0 0 0 0 0 0 0 0 0 0 0 0 127 0" result="hardAlpha"/>
<feOffset dx="0.5" dy="2"/>
<feGaussianBlur stdDeviation="1"/>
<feComposite in2="hardAlpha" operator="arithmetic" k2="-1" k3="1"/>
<feColorMatrix type="matrix" values="0 0 0 0 0 0 0 0 0 0 0 0 0 0 0 0 0 0 0.25 0"/>
<feBlend mode="normal" in2="shape" result="effect1_innerShadow"/>
</filter>
<linearGradient id="paint0_linear" x1="42" y1="3" x2="24" y2="53" gradientUnits="userSpaceOnUse">
<stop stop-color="#B3CEE5"/>
<stop offset="1" stop-color="#CEDDEB"/>
</linearGradient>
</defs>
</svg>
