<svg width="18" height="17" viewBox="0 0 18 17" fill="none" xmlns="http://www.w3.org/2000/svg">
<path d="M4.22559 5.85696C4.26678 4.49468 4.60783 3.21654 5.61298 2.21586C6.95468 0.879908 8.58531 0.500318 10.3807 1.0302C12.187 1.56394 13.2275 2.8453 13.6342 4.66424C13.947 6.06249 13.6773 7.38431 13.1143 8.66439C12.2005 10.7409 10.8955 12.5663 9.44953 14.2972C9.17154 14.6299 8.82405 14.6293 8.54605 14.2966C7.04605 12.4975 5.6902 10.6041 4.78415 8.4261C4.44438 7.6104 4.2243 6.76579 4.22559 5.85696ZM9.02224 7.1486C9.88518 7.13832 10.6008 6.41254 10.5879 5.56023C10.575 4.68865 9.82662 3.95516 8.97398 3.97828C8.11555 4.00205 7.40062 4.7304 7.40577 5.57693C7.41092 6.45043 8.14065 7.15951 9.02224 7.1486Z" fill="#828EA5"/>
<path d="M5.99414 14.5018C6.31846 14.3374 6.60997 14.189 6.92529 14.0291C7.19105 14.3522 7.44266 14.6695 7.70585 14.9765C8.46325 15.859 9.52632 15.8667 10.2786 14.9842C11.4337 13.6277 12.4639 12.1819 13.3352 10.6269C13.442 10.4355 13.554 10.3225 13.7799 10.361C13.8114 10.3662 13.8442 10.3617 13.8764 10.3617C14.6569 10.361 14.6557 10.3617 14.9633 11.0804C15.4549 12.2294 15.9485 13.3778 16.451 14.5487C16.3648 14.602 16.2889 14.6566 16.2059 14.6997C14.0855 15.7986 11.9639 16.895 9.84485 17.9952C9.68977 18.0755 9.57973 18.1134 9.42786 17.9605C8.32747 16.8494 7.2155 15.7498 6.10804 14.6451C6.0778 14.6168 6.05527 14.5802 5.99414 14.5018Z" fill="#828EA5"/>
<path d="M8.62841 18.6707C8.4019 18.7246 8.24488 18.7933 8.08851 18.794C5.60267 18.801 3.11747 18.7998 0.631628 18.7978C0.0923749 18.7972 -0.113545 18.4722 0.0601999 17.9731C0.202414 17.5647 0.4463 17.309 0.842697 17.1163C2.13163 16.4895 3.40319 15.826 4.67474 15.1638C4.90126 15.0456 5.03703 15.0565 5.22365 15.2466C6.25132 16.2923 7.29572 17.3219 8.33369 18.3579C8.41412 18.4382 8.49006 18.5236 8.62841 18.6707Z" fill="#828EA5"/>
<path d="M6.25412 13.1842C4.52117 14.0667 2.79659 14.9447 1.07137 15.8227C1.05528 15.8054 1.03919 15.788 1.02246 15.7701C1.24962 15.2338 1.47484 14.6968 1.70457 14.1618C2.1769 13.0635 2.66339 11.9716 3.11834 10.8662C3.27214 10.4918 3.50509 10.3723 3.89826 10.3473C4.35515 10.3177 4.59518 10.4731 4.81654 10.8746C5.24382 11.6492 5.74768 12.3807 6.25412 13.1842Z" fill="#828EA5"/>
<path d="M16.8761 15.541C17.0325 15.9071 17.1734 16.2379 17.3157 16.568C17.5235 17.0491 17.7391 17.527 17.9392 18.0112C18.1181 18.4448 17.8877 18.7955 17.4199 18.7968C15.2217 18.8006 13.0229 18.7987 10.8247 18.7974C10.7944 18.7974 10.7642 18.7884 10.6406 18.7698C12.7532 17.676 14.7957 16.6181 16.8761 15.541Z" fill="#828EA5"/>
<path d="M9.02178 7.14838C8.14018 7.1593 7.41045 6.45022 7.4053 5.57672C7.40015 4.73019 8.11508 4.00184 8.97351 3.97807C9.82615 3.95495 10.5745 4.68844 10.5874 5.56002C10.6003 6.41233 9.88471 7.13811 9.02178 7.14838ZM9.00891 5.04683C8.71354 5.04041 8.47609 5.27099 8.4748 5.5658C8.47351 5.85226 8.68458 6.07449 8.96965 6.08733C9.27403 6.10082 9.50891 5.88822 9.5192 5.58956C9.52886 5.29411 9.30299 5.05325 9.00891 5.04683Z" fill="white"/>
<path d="M9.00969 5.04701C9.30377 5.05343 9.52964 5.29428 9.51999 5.58973C9.50969 5.8884 9.27482 6.10099 8.97044 6.0875C8.68537 6.07466 8.47494 5.85243 8.47559 5.56597C8.47687 5.27116 8.71433 5.04058 9.00969 5.04701Z" fill="#828EA5"/>
</svg>
