<svg width="16" height="19" viewBox="0 0 16 19" fill="none" xmlns="http://www.w3.org/2000/svg">
<path d="M7.96628 16.2163C5.53187 16.2163 3.09746 16.2163 0.663049 16.2163C0.264898 16.2163 0.00325528 16.0441 0.0203189 15.7177C0.0260068 15.5337 0.128389 15.32 0.247834 15.1775C1.32853 13.931 2.07364 12.4946 2.32391 10.8326C2.46042 9.94227 2.44904 9.02225 2.47748 8.11409C2.50023 7.41962 2.56849 6.73703 2.80169 6.07817C3.39323 4.40432 4.47962 3.23499 6.0836 2.60582C6.34524 2.50491 6.41349 2.36839 6.41349 2.09535C6.41349 1.75702 6.42487 1.39494 6.52725 1.07442C6.75477 0.332463 7.50557 -0.100839 8.23361 0.0178742C8.98441 0.142523 9.60439 0.795444 9.56458 1.58488C9.53045 2.24374 9.7409 2.51085 10.3211 2.80169C12.3801 3.82262 13.4153 5.59144 13.5063 7.9657C13.5461 8.91541 13.5233 9.87105 13.6599 10.8029C13.9044 12.4531 14.6325 13.8895 15.7132 15.1241C15.7701 15.1894 15.8326 15.2547 15.8838 15.3259C16.1341 15.6939 15.9293 16.1628 15.5027 16.2103C15.4003 16.2222 15.2923 16.2163 15.1899 16.2163C12.7782 16.2163 10.3723 16.2163 7.96628 16.2163ZM8.5237 2.23187C8.48957 1.86386 8.64883 1.47804 8.28481 1.21687C8.09711 1.08035 7.88665 1.08035 7.69895 1.22281C7.34062 1.48991 7.49419 1.8698 7.47144 2.23187C7.82977 2.23187 8.14261 2.23187 8.5237 2.23187Z" fill="#828EA5"/>
<path d="M2.73491 1.83411C2.90555 1.97656 3.09325 2.07747 3.18425 2.23179C3.31508 2.45141 3.24113 2.67697 3.08187 2.88472C2.71785 3.35957 2.33107 3.81068 2.02962 4.32114C1.39826 5.37175 1.11387 6.54701 1.06836 7.78163C1.06836 7.84098 1.06836 7.90034 1.06268 7.9597C1.03992 8.30396 0.823785 8.54139 0.533703 8.54139C0.237933 8.54139 -0.0123332 8.28616 0.00473048 7.93595C0.0217941 7.48484 0.0445456 7.0278 0.118488 6.57669C0.397194 4.88503 1.10818 3.41299 2.26282 2.17837C2.37089 2.05373 2.53584 1.97656 2.73491 1.83411Z" fill="#828EA5"/>
<path d="M15.9922 7.55623C15.9922 7.68681 15.9979 7.81146 15.9922 7.94204C15.9808 8.29225 15.7476 8.54748 15.4519 8.54154C15.1618 8.53561 14.9684 8.29225 14.9229 7.95392C14.8262 7.22977 14.7636 6.49968 14.5873 5.79928C14.3143 4.71899 13.7398 3.79896 13.0118 2.98578C12.9094 2.873 12.8127 2.73648 12.7729 2.59403C12.7046 2.34473 12.7899 2.11918 13.0175 1.98859C13.2677 1.84614 13.4952 1.90549 13.6886 2.11324C14.2574 2.71274 14.7352 3.38941 15.1049 4.14323C15.6453 5.24726 15.8955 6.23851 15.9922 7.55623Z" fill="#828EA5"/>
<path d="M5.60547 17.35C7.20376 17.35 8.78499 17.35 10.3662 17.35C10.2468 18.1216 9.13764 18.9467 8.1707 19.0001C7.03881 19.0535 5.85005 18.3056 5.60547 17.35Z" fill="#828EA5"/>
</svg>
