<svg width="20" height="20" viewBox="0 0 20 20" fill="none" xmlns="http://www.w3.org/2000/svg">
<path d="M4.70472 17.2631C4.70472 17.3201 4.68672 17.2406 4.70773 17.1746C4.93282 16.4123 4.43462 15.9832 3.95292 15.56C3.86139 15.479 3.68432 15.464 3.54926 15.47C3.00754 15.4925 2.46733 15.527 1.92711 15.5735C1.49644 15.611 1.17231 15.4595 0.99674 15.0664C0.693619 14.3866 0.404003 13.6994 0.126392 13.0092C-0.0206669 12.6431 0.0903775 12.325 0.384495 12.0609C0.668109 11.8073 0.917208 11.5072 1.22483 11.2881C1.71703 10.9385 1.8956 10.5079 1.82507 9.90619C1.79206 9.6181 1.72003 9.41553 1.50394 9.23397C1.10178 8.89486 0.710126 8.53925 0.316968 8.18963C0.0408577 7.94355 -0.0851927 7.64646 0.0543631 7.28484C0.327472 6.57661 0.600582 5.86838 0.893199 5.16915C1.05226 4.78953 1.36889 4.63348 1.77705 4.65148C2.31877 4.67699 2.85899 4.7055 3.4007 4.719C3.84938 4.72951 4.56217 4.00477 4.54116 3.55913C4.51565 3.00395 4.47813 2.44876 4.43762 1.89358C4.4076 1.47945 4.57117 1.17185 4.94482 1.0053C5.62459 0.700696 6.30887 0.409602 6.99914 0.129011C7.36679 -0.0195378 7.68492 0.0914984 7.95052 0.381093C8.22663 0.684191 8.54176 0.95728 8.78185 1.28589C9.09998 1.72253 9.48264 1.86357 10.0153 1.83056C10.368 1.80806 10.6156 1.72853 10.8347 1.44944C11.1423 1.05931 11.4889 0.699196 11.8176 0.325574C12.0622 0.0464837 12.3578 -0.0780568 12.7194 0.0599881C13.4292 0.330076 14.139 0.598663 14.8383 0.891258C15.2149 1.04881 15.374 1.37141 15.356 1.77805C15.332 2.31972 15.3035 2.8599 15.287 3.40157C15.272 3.85772 15.9832 4.56595 16.4409 4.54495C16.9811 4.51944 17.5229 4.48793 18.0631 4.44141C18.5132 4.4039 18.8419 4.58096 19.0235 4.98309C19.3176 5.6358 19.5922 6.29752 19.8638 6.95923C20.0304 7.36436 19.8968 7.70347 19.5907 7.98857C19.2065 8.34868 18.8194 8.7073 18.4337 9.06742C18.0556 9.42153 18.0571 10.3683 18.4412 10.718C18.8194 11.0631 19.2005 11.4082 19.5937 11.7353C19.9493 12.0309 20.0949 12.382 19.9253 12.8216C19.6627 13.5029 19.3971 14.1841 19.109 14.8533C18.9469 15.2269 18.6258 15.383 18.2176 15.362C17.6624 15.3335 17.1057 15.2959 16.5505 15.2989C16.3869 15.3004 16.2023 15.401 16.0643 15.5045C15.506 15.9216 15.407 16.4648 15.497 17.152C15.7071 18.7501 15.6471 18.7966 14.157 19.4568C12.5589 20.1665 12.5589 20.1665 11.3614 18.8881C11.3119 18.8341 11.2458 18.7891 11.2128 18.7276C10.8527 18.0523 10.2209 18.1799 9.6357 18.2084C9.51715 18.2144 9.3866 18.3464 9.29206 18.4485C8.93492 18.8356 8.58528 19.2317 8.24314 19.6324C7.96703 19.9565 7.6399 20.09 7.22873 19.937C6.59848 19.7029 5.97123 19.4628 5.34548 19.2212C4.80827 19.0142 4.57717 18.624 4.6507 18.0493C4.68071 17.8318 4.68372 17.6112 4.70472 17.2631ZM13.8554 10.0322C13.8764 7.94955 12.1267 6.16397 10.0514 6.15197C7.93252 6.13846 6.18882 7.85202 6.1498 9.98422C6.11229 12.0249 7.87399 13.8375 9.91481 13.8585C12.0772 13.8825 13.8329 12.1764 13.8554 10.0322Z" fill="#828EA5"/>
</svg>
