<svg width="25" height="18" viewBox="0 0 25 18" fill="none" xmlns="http://www.w3.org/2000/svg">
<g filter="url(#filter0_i)">
<path d="M21.8556 9.0383C21.8105 11.4692 20.9777 13.57 19.2971 15.3181C19.0045 15.6258 18.6969 15.6858 18.3893 15.5207C18.0892 15.3557 17.9616 15.0856 18.0441 14.7629C18.0892 14.5829 18.2242 14.4103 18.3593 14.2677C20.9552 11.4842 21.1503 7.32767 18.8094 4.34156C18.6369 4.12398 18.4493 3.9289 18.2692 3.71882C17.9616 3.3737 17.9466 2.96104 18.2317 2.67594C18.5318 2.38333 18.9595 2.40584 19.2971 2.75096C20.9777 4.50662 21.8105 6.6224 21.8556 9.0383Z" fill="#828EA5"/>
<path d="M15.8157 9.09074C15.7782 10.7264 14.4277 12.0393 12.8146 12.0018C11.164 11.9718 9.84353 10.5988 9.89605 8.9707C9.94856 7.32759 11.3066 6.02961 12.9197 6.07462C14.5553 6.12714 15.8533 7.47014 15.8157 9.09074Z" fill="#828EA5"/>
<path d="M4.71945 0.342773C5.4022 0.350276 5.73233 0.935494 5.45472 1.40067C5.36469 1.55072 5.23714 1.67077 5.1171 1.79831C1.29818 5.81981 1.30568 12.2722 5.1246 16.2937C5.22214 16.3912 5.31967 16.4888 5.4022 16.6013C5.63479 16.9089 5.59728 17.3066 5.33468 17.5542C5.06458 17.8018 4.66693 17.8168 4.38182 17.5467C4.10422 17.2841 3.84162 16.9915 3.59403 16.6914C-0.292414 12.0246 -0.0373192 5.11455 4.17925 0.740421C4.35932 0.552852 4.59941 0.425304 4.71945 0.342773Z" fill="#828EA5"/>
<path d="M24.8644 9.22572C24.8119 12.2268 23.7315 14.9954 21.5482 17.3212C21.5332 17.3362 21.5107 17.3587 21.4957 17.3737C21.0905 17.7939 20.6779 17.8539 20.3552 17.5313C20.0476 17.2237 20.0851 16.811 20.4603 16.4059C20.7154 16.1283 20.9705 15.8507 21.1956 15.5581C24.4368 11.424 24.1442 5.52684 20.5128 1.72293C20.4603 1.67041 20.4078 1.61789 20.3552 1.55787C20.0626 1.21274 20.0626 0.78508 20.3627 0.522482C20.6554 0.259885 21.0755 0.259885 21.3681 0.590007C21.9158 1.22024 22.4785 1.85048 22.9362 2.54824C24.2417 4.51397 24.8419 6.68978 24.8644 9.22572Z" fill="#828EA5"/>
<path d="M3.84766 9.04584C3.89267 6.62244 4.71798 4.51415 6.41361 2.7585C6.71372 2.45089 7.05135 2.39086 7.35896 2.58594C7.65157 2.77351 7.74911 3.05111 7.65157 3.36623C7.59905 3.53129 7.464 3.68885 7.34396 3.8239C4.74799 6.59993 4.56042 10.7715 6.9088 13.7501C7.07386 13.9527 7.25392 14.1477 7.42649 14.3428C7.74911 14.7029 7.77162 15.1306 7.47901 15.4082C7.1789 15.6933 6.75124 15.6633 6.41361 15.3182C4.72548 13.5775 3.89267 11.4767 3.84766 9.04584Z" fill="#828EA5"/>
<path d="M6.85938 9.12083C6.89689 7.4402 7.43709 6.05219 8.54 4.89676C8.78009 4.64916 9.05019 4.52912 9.38031 4.66417C9.86049 4.85174 9.96553 5.42946 9.58289 5.84211C9.01268 6.45734 8.59252 7.1551 8.40495 7.9804C8.05982 9.51097 8.40495 10.8765 9.41783 12.0694C9.48535 12.1445 9.55288 12.212 9.6204 12.2945C9.883 12.6171 9.8755 13.0073 9.6054 13.2774C9.32779 13.555 8.90764 13.555 8.60002 13.2549C7.65467 12.317 7.09946 11.1766 6.9194 9.8636C6.88939 9.5785 6.87438 9.3084 6.85938 9.12083Z" fill="#828EA5"/>
<path d="M18.8406 9.03093C18.8106 10.6215 18.2779 12.0095 17.1825 13.1725C16.9274 13.4426 16.6348 13.5701 16.2822 13.3976C15.832 13.18 15.757 12.6398 16.1321 12.2346C16.8074 11.5069 17.2426 10.674 17.3776 9.68368C17.5652 8.30316 17.1975 7.08771 16.2972 6.02982C16.2222 5.94729 16.1396 5.86476 16.0721 5.78223C15.817 5.45961 15.832 5.06196 16.1096 4.79936C16.3872 4.53676 16.7924 4.53676 17.085 4.81437C17.6552 5.35457 18.1129 5.9923 18.368 6.72758C18.6156 7.46285 18.7581 8.23564 18.9457 8.99342C18.9082 9.01593 18.8707 9.02343 18.8406 9.03093Z" fill="#828EA5"/>
</g>
<defs>
<filter id="filter0_i" x="0.839844" y="0.333252" width="24.5246" height="19.4113" filterUnits="userSpaceOnUse" color-interpolation-filters="sRGB">
<feFlood flood-opacity="0" result="BackgroundImageFix"/>
<feBlend mode="normal" in="SourceGraphic" in2="BackgroundImageFix" result="shape"/>
<feColorMatrix in="SourceAlpha" type="matrix" values="0 0 0 0 0 0 0 0 0 0 0 0 0 0 0 0 0 0 127 0" result="hardAlpha"/>
<feOffset dx="0.5" dy="2"/>
<feGaussianBlur stdDeviation="1"/>
<feComposite in2="hardAlpha" operator="arithmetic" k2="-1" k3="1"/>
<feColorMatrix type="matrix" values="0 0 0 0 0 0 0 0 0 0 0 0 0 0 0 0 0 0 0.25 0"/>
<feBlend mode="normal" in2="shape" result="effect1_innerShadow"/>
</filter>
</defs>
</svg>
