<svg width="218" height="218" viewBox="0 0 218 218" fill="none" xmlns="http://www.w3.org/2000/svg">
<path d="M108.67 0C48.65 0 0 48.65 0 108.67C0 168.68 48.65 217.34 108.67 217.34C168.69 217.34 217.34 168.68 217.34 108.67C217.34 48.65 168.69 0 108.67 0ZM141.19 69.67C141.19 74.67 138.48 77.91 133.51 78.6C130.16 79.07 126.79 79.37 123.42 79.64C121.08 79.83 120.82 79.95 120.25 82.29C119.51 85.36 119.75 88.45 120.15 91.52C121.2 99.68 123.52 107.54 125.87 115.38C127.81 121.9 130 128.35 131.79 134.9C133.23 140.2 134.36 145.6 135.4 151C135.92 153.72 136.07 156.52 136.14 159.29C136.2 161.7 136.16 164.06 136.79 166.44C137.42 168.82 137.08 169.19 134.72 170C133.42 170.44 132.09 170.82 130.75 171.06C127.76 171.61 124.76 172.11 121.75 172.51C119.85 172.76 117.92 172.84 116 172.94C113.6 173.07 111.2 173.24 108.8 173.22H108.54C106.14 173.24 103.74 173.07 101.34 172.94C99.42 172.84 97.49 172.76 95.59 172.51C92.58 172.11 89.58 171.61 86.59 171.06C85.25 170.82 83.92 170.44 82.62 170C80.26 169.19 79.92 168.82 80.55 166.44C81.18 164.06 81.14 161.7 81.2 159.29C81.27 156.52 81.42 153.72 81.94 151C82.98 145.6 84.11 140.2 85.55 134.9C87.34 128.35 89.53 121.9 91.47 115.38C93.82 107.54 96.14 99.68 97.19 91.52C97.59 88.45 97.83 85.36 97.09 82.29C96.52 79.95 96.26 79.83 93.92 79.64C90.55 79.37 87.18 79.07 83.83 78.6C78.86 77.91 76.15 74.67 76.15 69.67C76.15 66.12 75.98 62.56 76.22 59.03C76.34 57.15 76.98 55.25 77.73 53.51C78.87 50.88 81.29 49.85 83.96 49.45C92.16 48.22 100.37 46.98 108.67 47.13C116.97 46.98 125.18 48.22 133.38 49.45C136.05 49.85 138.47 50.88 139.61 53.51C140.36 55.25 141 57.15 141.12 59.03C141.36 62.56 141.19 66.12 141.19 69.67Z" fill="#EAF1F8"/>
</svg>
