<svg width="20" height="20" viewBox="0 0 20 20" fill="none" xmlns="http://www.w3.org/2000/svg">
<path d="M9.99802 0.000469519C15.4538 -0.035924 19.9655 4.45475 20.001 9.95872C20.0365 15.477 15.5656 19.9748 10.0187 19.9998C4.51777 20.0254 0.0268734 15.5562 0.000234338 10.0301C-0.0256647 4.51112 4.43268 0.0382902 9.99802 0.000469519ZM7.11508 10.9035V10.9071C7.6264 10.9071 8.13699 10.9078 8.64831 10.9071C9.09969 10.9064 9.09747 10.905 9.09747 11.3424C9.09747 12.4099 9.09303 13.4775 9.10487 14.545C9.11005 14.981 9.32982 15.2672 9.70795 15.402C10.0676 15.5298 10.4124 15.4598 10.6344 15.173C10.7876 14.9746 10.8867 14.6842 10.8934 14.4316C10.9215 13.3876 10.9178 12.3421 10.8978 11.2974C10.8919 10.9777 10.9911 10.8957 11.3004 10.9007C12.3223 10.9185 13.3442 10.9099 14.3661 10.905C14.5341 10.9042 14.7109 10.8935 14.8685 10.8407C15.2666 10.7073 15.5101 10.2763 15.4457 9.86667C15.3776 9.43352 15.0387 9.11525 14.5703 9.10812C13.4803 9.0917 12.3904 9.08956 11.3004 9.10526C10.9948 9.10954 10.8897 9.03747 10.8963 8.71207C10.9171 7.65666 10.9237 6.59911 10.8867 5.54441C10.8771 5.27824 10.7387 4.96996 10.5611 4.76659C10.3317 4.50398 9.97878 4.47687 9.64653 4.62387C9.27581 4.788 9.09747 5.08699 9.09673 5.48803C9.09377 6.57841 9.08637 7.66879 9.10043 8.75845C9.10413 9.03319 9.01534 9.10526 8.75043 9.10241C7.67154 9.08956 6.5934 9.09099 5.51452 9.10027C4.94326 9.10526 4.55773 9.47062 4.54737 9.9837C4.53701 10.5132 4.92402 10.8893 5.51378 10.9007C6.04804 10.9121 6.58156 10.9035 7.11508 10.9035Z" fill="#747C8B" fill-opacity="0.3"/>
</svg>
