<svg width="24" height="24" viewBox="0 0 24 24" fill="none" xmlns="http://www.w3.org/2000/svg">
<path d="M23.7139 0.218299C23.6238 0.138385 23.518 0.0781256 23.4033 0.0413643C23.2886 0.00460299 23.1675 -0.00785364 23.0477 0.00478875L7.61948 1.71857C7.40911 1.74113 7.2146 1.84098 7.07365 1.99876C6.9327 2.15655 6.85533 2.36104 6.85653 2.57261V17.8443C6.07963 17.3803 5.19079 17.1371 4.28587 17.1411C1.92302 17.1411 0 18.6798 0 20.5701C0 22.4604 1.92302 23.9991 4.28587 23.9991C6.64872 23.9991 8.57173 22.4618 8.57173 20.5701V7.62711L22.2848 6.09838V16.1263C21.5076 15.6632 20.6188 15.4211 19.7141 15.4259C17.3513 15.4259 15.4283 16.9632 15.4283 18.8549C15.4283 20.7466 17.3513 22.2839 19.7141 22.2839C22.077 22.2839 24 20.7466 24 18.8549V0.857407C24.0002 0.73671 23.9748 0.617346 23.9255 0.507183C23.8761 0.397021 23.804 0.298563 23.7139 0.218299ZM4.28587 22.2839C2.89236 22.2839 1.7152 21.4982 1.7152 20.5758C1.7152 19.6534 2.89236 18.8677 4.28587 18.8677C5.67938 18.8677 6.85653 19.6534 6.85653 20.5758C6.85653 21.4982 5.67938 22.2839 4.28587 22.2839ZM19.7141 20.5758C18.3206 20.5758 17.1435 19.7901 17.1435 18.8677C17.1435 17.9454 18.3206 17.1596 19.7141 17.1596C21.1076 17.1596 22.2848 17.9454 22.2848 18.8677C22.2848 19.7901 21.1076 20.5701 19.7127 20.5701L19.7141 20.5758ZM22.2848 4.37464L8.57031 5.8991V3.33698L22.2834 1.80824L22.2848 4.37464Z" fill="#747C8B"/>
</svg>
