<svg width="22" height="23" viewBox="0 0 22 23" fill="none" xmlns="http://www.w3.org/2000/svg">
<g clip-path="url(#clip0)">
<path d="M2.26323 5.06576C1.84031 5.06576 1.42385 5.07058 1.009 5.06416C0.398827 5.05453 -0.00795306 4.703 0.000117963 4.20059C0.00818899 3.71103 0.382685 3.39 0.994468 3.38358C2.70068 3.37074 4.4069 3.36753 6.11311 3.3595C6.30359 3.3579 6.49568 3.3595 6.76041 3.3595C6.76041 2.99514 6.75718 2.66448 6.76041 2.33543C6.77494 1.02082 7.65791 0.0705785 8.9751 0.0320552C10.31 -0.00646803 11.6482 -0.0112834 12.9832 0.0240296C14.3213 0.0593426 15.2205 1.016 15.2431 2.34506C15.2479 2.66127 15.2431 2.97909 15.2431 3.33543C15.4577 3.34506 15.6288 3.3579 15.8 3.3595C17.4739 3.36753 19.1478 3.37555 20.8217 3.38197C20.9186 3.38197 21.0155 3.37876 21.1107 3.38679C21.6385 3.42531 21.9969 3.76239 21.9985 4.21665C22.0001 4.68535 21.6159 5.04008 21.0703 5.06255C20.846 5.07218 20.62 5.06416 20.394 5.06576C20.1858 5.06576 19.9791 5.06576 19.7144 5.06576C19.6805 5.43494 19.6385 5.77684 19.6159 6.12034C19.3786 9.92291 19.1462 13.7255 18.9089 17.528C18.8573 18.3435 18.7975 19.1573 18.7297 19.9695C18.6054 21.4687 17.2947 22.825 15.7854 22.9438C14.8573 23.016 13.9194 22.9919 12.9864 22.9951C10.9896 23.0016 8.99447 23 6.9977 22.9951C4.73781 22.9903 3.39156 21.6645 3.25113 19.4237C2.95734 14.695 2.6232 9.96785 2.3052 5.24072C2.31005 5.21023 2.29552 5.17973 2.26323 5.06576ZM4.06146 5.12034C4.08406 5.43494 4.10827 5.72066 4.12603 6.00637C4.38914 10.512 4.65226 15.016 4.91699 19.5216C4.98317 20.6549 5.67566 21.3097 6.81691 21.3113C9.55298 21.3162 12.2891 21.2792 15.0251 21.3242C16.3665 21.3467 17.0461 20.4847 17.1075 19.3386C17.3205 15.4237 17.595 11.5136 17.8435 7.60027C17.8952 6.78968 17.9291 5.97909 17.9743 5.12034C13.3222 5.12034 8.72651 5.12034 4.06146 5.12034ZM13.5239 3.3274C13.5239 3.03527 13.5255 2.76881 13.5239 2.50236C13.5207 1.88759 13.3819 1.74474 12.7572 1.74153C11.7951 1.73671 10.8314 1.73992 9.86937 1.73992C8.41174 1.73992 8.39721 1.75437 8.49568 3.22146C8.49729 3.24875 8.52312 3.27604 8.55056 3.3274C10.1793 3.3274 11.8242 3.3274 13.5239 3.3274Z" fill="#141414" fill-opacity="0.3"/>
<path d="M13.5225 13.1407C13.5225 11.7154 13.5193 10.29 13.5242 8.86466C13.5258 8.32533 13.7211 7.99788 14.0843 7.88392C14.5217 7.74748 14.9317 8.16482 14.9414 8.78601C14.9543 9.66722 14.9463 10.5484 14.9463 11.4281C14.9463 13.4618 14.9511 15.4955 14.943 17.5292C14.9398 18.2932 14.4039 18.733 13.9035 18.4008C13.5984 18.1985 13.5225 17.8582 13.5242 17.4634C13.529 16.022 13.5258 14.5805 13.5258 13.1391C13.5225 13.1407 13.5225 13.1407 13.5225 13.1407Z" fill="black" fill-opacity="0.3"/>
<path d="M6.76022 13.1395C6.76022 11.7463 6.75861 10.353 6.76022 8.96137C6.76184 8.26956 7.09114 7.85543 7.62705 7.86346C8.14682 7.86988 8.47774 8.27598 8.47774 8.93408C8.47935 11.7832 8.47935 14.6339 8.47451 17.483C8.47289 18.0978 8.1323 18.5039 7.63189 18.5151C7.11696 18.5264 6.76184 18.1042 6.76022 17.4638C6.757 16.0224 6.76022 14.581 6.76022 13.1395Z" fill="black" fill-opacity="0.3"/>
<path d="M11.86 13.1911C11.86 14.6486 11.86 16.1044 11.86 17.5619C11.86 17.9455 11.7276 18.3003 11.3515 18.403C11.0932 18.4736 10.6913 18.4624 10.5186 18.3067C10.3039 18.1125 10.1602 17.7336 10.157 17.4335C10.1296 15.0322 10.1425 12.6309 10.1441 10.2296C10.1441 9.7818 10.1409 9.33236 10.1457 8.88453C10.1522 8.26494 10.4847 7.87008 10.9948 7.86366C11.5016 7.85724 11.8584 8.26013 11.86 8.86848C11.8632 10.3083 11.86 11.7497 11.86 13.1911Z" fill="black" fill-opacity="0.3"/>
</g>
<defs>
<clipPath id="clip0">
<rect width="22" height="23" fill="white"/>
</clipPath>
</defs>
</svg>
