<svg width="81" height="81" viewBox="0 0 81 81" fill="none" xmlns="http://www.w3.org/2000/svg">
<g opacity="0.3" clip-path="url(#clip0)">
<path d="M47.0435 6.56601C49.3386 6.67142 51.3994 7.35366 53.0299 8.97583C59.3589 15.2683 65.7113 21.5432 71.9524 27.9236C75.4477 31.4958 75.2632 36.7664 71.6509 40.3973C62.4648 49.6296 53.2407 58.8267 44.0342 68.0356C42.793 69.2771 41.5664 70.5333 40.3047 71.7543C36.6133 75.3236 31.388 75.3968 27.7171 71.7836C21.4965 65.658 15.3227 59.4826 9.19862 53.2575C5.60968 49.6091 5.67701 44.3209 9.30986 40.6725C19.7371 30.1958 30.2024 19.76 40.6472 9.30378C42.4241 7.51764 44.5757 6.65385 47.0435 6.56601ZM38.8528 19.9152C32.5033 26.2458 26.1656 32.5617 20.0445 38.6638C27.4566 46.107 34.9623 53.644 42.2807 60.9935C48.513 54.7742 54.8478 48.4554 61.1036 42.2156C53.712 34.8046 46.2209 27.2969 38.8528 19.9152ZM37.8779 65.7634C30.3195 58.1913 22.8284 50.6866 15.0211 42.8656C14.6699 43.3341 14.3127 43.9227 13.8473 44.4058C11.9211 46.4028 11.9064 47.6882 13.8385 49.6178C19.3858 55.1666 24.9302 60.7212 30.4834 66.267C33.686 69.4674 34.7369 69.4264 37.7491 66.0093C37.8077 65.9391 37.837 65.8395 37.8779 65.7634ZM66.0977 38.2539C66.4899 37.6829 66.8559 36.9743 67.3828 36.4092C69.0016 34.6699 69.0338 33.2703 67.3769 31.6012C65.6966 29.903 64.0105 28.2134 62.3214 26.5269C58.0123 22.2196 53.7062 17.9124 49.3912 13.611C48.0183 12.2436 46.66 12.0093 45.3632 12.9844C44.4791 13.6461 43.68 14.4221 42.9481 15.0575C50.7027 22.8228 58.1909 30.3305 66.0977 38.2539Z" fill="#747C8B"/>
<path d="M81.0014 46.7028C80.3779 51.2443 78.923 55.6833 76.6455 59.8119C70.5244 70.9006 61.2418 77.8344 48.8942 80.6512C48.2297 80.8035 47.5505 80.9118 46.8743 80.9821C45.1677 81.1607 43.8299 80.2178 43.5049 78.6454C43.1946 77.1375 44.1431 75.65 45.8263 75.3045C49.6172 74.5344 53.3174 73.5213 56.7307 71.6561C66.6574 66.2303 72.7961 57.9994 75.0326 46.8844C75.1204 46.4539 75.1994 46.0206 75.3282 45.6018C75.7703 44.1466 77.19 43.2418 78.5835 43.5053C80.0413 43.7835 81.0395 45.0367 81.0014 46.7028Z" fill="#747C8B"/>
<path d="M-0.00175477 34.4819C0.615918 29.8789 2.08838 25.355 4.41856 21.1414C10.5162 10.1142 19.7608 3.22733 32.0235 0.384146C32.7817 0.20846 33.5575 0.0737676 34.3303 0.0122775C35.9901 -0.122415 37.2899 0.940485 37.527 2.55972C37.7407 4.01792 36.8742 5.27114 35.3022 5.69865C33.0042 6.32526 30.6126 6.70006 28.4112 7.5697C16.1456 12.4128 8.62224 21.3171 5.97884 34.2769C5.44313 36.9093 4.12289 38.0483 2.1118 37.4744C0.77985 37.0879 -0.0163916 36.0338 -0.00175477 34.4819Z" fill="#747C8B"/>
</g>
<defs>
<clipPath id="clip0">
<rect width="81" height="81" fill="white"/>
</clipPath>
</defs>
</svg>
