<svg width="16" height="16" viewBox="0 0 16 16" fill="none" xmlns="http://www.w3.org/2000/svg">
<g filter="url(#filter0_i)">
<path d="M9.7886 2.58381C9.71264 2.63074 9.6241 2.66461 9.56266 2.72557C8.28344 3.99995 7.00084 5.27094 5.73711 6.5608C5.53681 6.76545 5.38344 7.03929 5.27893 7.30878C5.05493 7.88597 4.87737 8.48107 4.68045 9.06843C4.4995 9.60837 4.60111 10.0927 5.00316 10.4918C5.40473 10.891 5.88903 10.9906 6.42849 10.8102C7.03906 10.606 7.65593 10.4192 8.25732 10.1904C8.49778 10.099 8.7363 9.94946 8.91918 9.76948C10.2115 8.49704 11.4902 7.21056 12.7699 5.92554C12.8304 5.86507 12.8579 5.77169 12.901 5.69379C12.932 5.7175 12.9634 5.74073 12.9944 5.76443C12.9987 5.82443 13.007 5.88394 13.007 5.94393C13.0079 8.52365 13.0099 11.1029 13.007 13.6826C13.0055 14.8046 12.3127 15.4935 11.198 15.4935C8.05412 15.4935 4.91026 15.494 1.7669 15.4935C0.699596 15.4935 -0.000488281 14.791 -0.000488281 13.7208C-0.000488281 10.56 -0.000488281 7.40022 -4.46322e-06 4.24041C-4.46322e-06 3.20794 0.71024 2.48705 1.74319 2.4856C4.3471 2.48173 6.95053 2.48415 9.55443 2.48415C9.60911 2.48415 9.66378 2.48415 9.71845 2.48415C9.74167 2.51753 9.76538 2.55091 9.7886 2.58381Z" fill="#828EA5" fill-opacity="0.5"/>
<path d="M11.9307 1.65527C12.5757 2.29875 13.2012 2.92336 13.8418 3.56248C13.7891 3.61958 13.7325 3.68489 13.672 3.74585C11.8886 5.52969 10.1063 7.31498 8.31758 9.09398C8.19662 9.21396 8.03793 9.31557 7.87778 9.37266C7.31752 9.57344 6.74855 9.74907 6.18442 9.93921C5.98702 10.006 5.80269 10.0137 5.64448 9.85986C5.47805 9.69778 5.48821 9.50571 5.55788 9.30008C5.75479 8.72144 5.94251 8.1394 6.14233 7.56172C6.18055 7.45141 6.24103 7.33675 6.32231 7.25498C8.15937 5.41067 10.0008 3.57071 11.8417 1.73027C11.8698 1.70269 11.9022 1.67946 11.9307 1.65527Z" fill="#828EA5" fill-opacity="0.5"/>
<path d="M12.6392 0.948404C12.8791 0.705527 13.1235 0.437492 13.3905 0.193647C13.6668 -0.058422 14.0596 -0.0676145 14.3393 0.184939C14.6794 0.492647 15.005 0.81874 15.3127 1.15886C15.5571 1.42932 15.5474 1.81444 15.3147 2.09021C15.1695 2.26197 14.9997 2.41292 14.8434 2.57548C14.7438 2.6795 14.648 2.7874 14.5536 2.89045C13.9029 2.23101 13.2783 1.5972 12.6392 0.948404Z" fill="#828EA5" fill-opacity="0.5"/>
</g>
<defs>
<filter id="filter0_i" x="-0.000488281" y="0" width="15.9931" height="17.4937" filterUnits="userSpaceOnUse" color-interpolation-filters="sRGB">
<feFlood flood-opacity="0" result="BackgroundImageFix"/>
<feBlend mode="normal" in="SourceGraphic" in2="BackgroundImageFix" result="shape"/>
<feColorMatrix in="SourceAlpha" type="matrix" values="0 0 0 0 0 0 0 0 0 0 0 0 0 0 0 0 0 0 127 0" result="hardAlpha"/>
<feOffset dx="0.5" dy="2"/>
<feGaussianBlur stdDeviation="1"/>
<feComposite in2="hardAlpha" operator="arithmetic" k2="-1" k3="1"/>
<feColorMatrix type="matrix" values="0 0 0 0 0 0 0 0 0 0 0 0 0 0 0 0 0 0 0.25 0"/>
<feBlend mode="normal" in2="shape" result="effect1_innerShadow"/>
</filter>
</defs>
</svg>
