<svg width="81" height="69" viewBox="0 0 81 69" fill="none" xmlns="http://www.w3.org/2000/svg">
<path d="M44.2919 56.8588C47.2886 57.0047 50.0954 57.1429 52.9022 57.2734C55.1784 57.3809 55.7871 56.8716 55.9692 54.6603C56.2423 51.3971 56.4947 48.1289 56.76 44.8017C58.62 44.5893 60.3837 44.4357 62.1291 44.1798C64.0229 43.9008 64.5874 42.9897 63.8876 41.2084C61.9262 36.21 59.7984 31.2704 57.9358 26.2362C56.9057 23.4568 56.336 20.5161 55.4463 17.6803C54.1431 13.5137 52.0646 9.75657 48.9586 6.60345C44.7627 2.3447 39.5523 0.41495 33.6108 0.0822354C27.7214 -0.24792 22.0558 0.345848 16.7439 3.15345C10.1391 6.64184 6.15647 11.9576 5.08472 19.2364C4.61128 22.4484 4.82199 25.7115 5.66222 28.8851C5.93276 29.914 5.82089 30.4387 4.6555 30.9761C1.79144 32.2993 0.204639 34.6104 0.0251465 37.8224C-0.120529 40.4022 0.34251 42.7261 2.18945 44.6814C3.41207 45.9764 4.8324 46.9029 6.65332 47.0283C7.73808 47.1051 8.11006 47.53 8.09966 48.6305C8.04763 54.3046 8.07625 59.9786 8.07625 65.6502C8.07625 66.0341 8.06844 66.418 8.08405 66.8019C8.14128 68.0815 8.90607 68.9568 9.98301 68.9927C11.099 69.0285 12.0172 68.0918 12.0198 66.7967C12.0355 59.6715 12.0355 52.5489 12.0198 45.4236C12.0172 44.0544 11.3721 43.435 9.9518 43.3173C9.21823 43.2559 8.47685 43.2738 7.74848 43.1868C5.44891 42.9078 4.09882 41.4029 4.00517 39.0611C3.89851 36.361 4.94425 34.8663 7.32186 34.3237C7.44932 34.2956 7.57158 34.2495 7.69645 34.2214C10.2093 33.6813 10.6333 32.9417 10.1079 30.4438C9.67086 28.363 9.23123 26.2669 9.04654 24.1555C8.40401 16.8204 12.2358 9.99715 19.0538 6.51388C25.5858 3.17905 32.4038 3.05876 39.2375 4.97059C44.6274 6.47804 48.1522 10.3836 50.4856 15.2848C51.7915 18.0284 52.6603 20.9076 52.8112 23.9891C52.858 24.9642 53.4173 25.9265 53.7971 26.8709C55.579 31.296 57.3817 35.716 59.2807 40.3868C58.1751 40.543 57.1866 40.7426 56.1903 40.8117C53.152 41.0216 52.7904 41.4259 52.6187 44.4485C52.4548 47.3329 52.1713 50.2122 51.9268 53.2578C49.0185 53.094 46.2585 52.9609 43.5037 52.7792C40.8711 52.6052 40.2598 53.1401 40.2546 55.7711C40.2468 59.1827 40.252 62.5969 40.2546 66.0085C40.2546 66.3489 40.2598 66.6918 40.304 67.0296C40.4523 68.1967 41.3082 69.0259 42.3097 69.0003C43.3528 68.9722 44.2398 68.0534 44.2659 66.8147C44.3127 64.5112 44.2841 62.2078 44.2867 59.9044C44.2919 58.9703 44.2919 58.0387 44.2919 56.8588Z" fill="#747C8B"/>
<path d="M80.999 51.4283C80.8039 46.6014 79.2926 42.5499 75.9655 39.233C75.068 38.3373 74.0249 38.2374 73.2159 38.9464C72.2638 39.7782 72.1545 40.8761 73.0546 41.8794C74.7376 43.7605 76.0903 45.808 76.5846 48.3059C77.469 52.7669 76.4467 56.7185 73.3902 60.1813C72.9089 60.7264 72.4875 61.6376 72.5889 62.2979C72.8413 63.9589 74.683 64.3863 75.9603 63.1476C78.598 60.5831 80.1328 57.4505 80.7155 53.8623C80.8586 52.9818 80.9236 52.0886 80.999 51.4283Z" fill="#747C8B"/>
<path d="M70.2898 42.9299C69.7617 43.3445 69.0255 43.6542 68.7966 44.1788C68.5469 44.7496 68.6015 45.5814 68.8278 46.1879C69.0854 46.8815 69.7461 47.4164 70.1155 48.0844C71.4786 50.5414 71.1716 53.3311 69.3585 55.4656C69.192 55.6626 69.0177 55.8546 68.8747 56.067C68.2452 56.9986 68.357 58.0556 69.1452 58.7108C69.9698 59.3967 71.0338 59.3993 71.835 58.5957C76.0699 54.3395 75.9139 47.7594 71.7075 43.6823C71.3875 43.3752 70.8959 43.2447 70.2898 42.9299Z" fill="#747C8B"/>
</svg>
