<svg width="24" height="24" viewBox="0 0 24 24" fill="none" xmlns="http://www.w3.org/2000/svg">
<g clip-path="url(#clip0)">
<path d="M13.9388 1.94589C14.6188 1.97713 15.2295 2.17927 15.7126 2.65991C17.5878 4.52435 19.47 6.38359 21.3192 8.27406C22.3549 9.33251 22.3002 10.8942 21.2299 11.97C18.5081 14.7055 15.775 17.4305 13.0472 20.1591C12.6794 20.527 12.316 20.8992 11.9421 21.2609C10.8484 22.3185 9.30015 22.3402 8.21247 21.2696C6.36932 19.4546 4.54005 17.6249 2.72552 15.7804C1.66213 14.6994 1.68208 13.1325 2.75848 12.0515C5.84803 8.9473 8.94886 5.85523 12.0436 2.75708C12.5701 2.22786 13.2076 1.97192 13.9388 1.94589ZM11.5119 5.90121C9.63061 7.77693 7.75277 9.64831 5.93911 11.4564C8.13527 13.6618 10.3592 15.8949 12.5276 18.0726C14.3742 16.2298 16.2512 14.3576 18.1048 12.5087C15.9147 10.3129 13.6951 8.08839 11.5119 5.90121ZM11.2231 19.4859C8.98356 17.2423 6.76397 15.0187 4.45071 12.7013C4.34662 12.8402 4.2408 13.0145 4.10289 13.1577C3.53217 13.7494 3.52783 14.1303 4.10029 14.702C5.74395 16.3461 7.38674 17.9919 9.03213 19.6351C9.98103 20.5834 10.2924 20.5712 11.1849 19.5587C11.2023 19.5379 11.211 19.5084 11.2231 19.4859ZM19.5845 11.3349C19.7007 11.1657 19.8091 10.9558 19.9653 10.7883C20.4449 10.273 20.4545 9.85827 19.9635 9.36374C19.4657 8.86054 18.9661 8.35995 18.4656 7.86022C17.1888 6.584 15.9129 5.30778 14.6344 4.0333C14.2276 3.62814 13.8252 3.55873 13.4409 3.84764C13.179 4.04371 12.9422 4.27362 12.7254 4.46189C15.023 6.76272 17.2417 8.98721 19.5845 11.3349Z" fill="#747C8B"/>
<path d="M24.0004 13.8379C23.8157 15.1836 23.3846 16.4988 22.7098 17.7221C20.8961 21.0077 18.1457 23.0621 14.4872 23.8967C14.2903 23.9418 14.089 23.9739 13.8887 23.9948C13.383 24.0477 12.9866 23.7683 12.8903 23.3024C12.7984 22.8556 13.0794 22.4149 13.5782 22.3125C14.7014 22.0843 15.7978 21.7842 16.8091 21.2315C19.7503 19.6239 21.5692 17.1851 22.2319 13.8917C22.2579 13.7642 22.2813 13.6358 22.3195 13.5117C22.4504 13.0805 22.8711 12.8125 23.284 12.8905C23.7159 12.973 24.0117 13.3443 24.0004 13.8379Z" fill="#747C8B"/>
<path d="M-0.000917791 10.2174C0.182096 8.85357 0.618381 7.51315 1.3088 6.26469C3.11553 2.99737 5.85467 0.95681 9.48806 0.114385C9.71271 0.0623302 9.94256 0.0224213 10.1715 0.00420206C10.6633 -0.0357068 11.0484 0.279226 11.1187 0.759001C11.182 1.19106 10.9253 1.56238 10.4595 1.68905C9.77863 1.87471 9.06999 1.98577 8.41773 2.24344C4.78347 3.67842 2.55434 6.31675 1.77111 10.1567C1.61238 10.9366 1.2212 11.2741 0.62532 11.1041C0.230669 10.9896 -0.00525462 10.6772 -0.000917791 10.2174Z" fill="#747C8B"/>
</g>
<defs>
<clipPath id="clip0">
<rect width="24" height="24" fill="white"/>
</clipPath>
</defs>
</svg>
