<svg width="52" height="74" viewBox="0 0 52 74" fill="none" xmlns="http://www.w3.org/2000/svg">
<path d="M25.9997 0C21.3696 0.000776695 16.8238 1.23773 12.8317 3.58307C8.83964 5.92842 5.54615 9.29709 3.2915 13.3411C1.03685 17.385 -0.0971892 21.9577 0.00652666 26.5866C0.110243 31.2154 1.44796 35.7327 3.88148 39.6716L24.519 72.9295C24.7134 73.2427 24.9846 73.5012 25.3068 73.6804C25.629 73.8596 25.9916 73.9537 26.3603 73.9537C26.7319 73.9504 27.0964 73.8517 27.4188 73.667C27.7413 73.4823 28.0108 73.2177 28.2015 72.8988L48.3327 39.3187C50.6855 35.3717 51.9504 30.8716 51.9986 26.2768C52.0468 21.682 50.8766 17.1564 48.6071 13.1609C46.3376 9.16538 43.05 5.84255 39.0788 3.53073C35.1076 1.21891 30.5948 0.000658663 25.9997 0V0ZM44.6118 37.0977L26.3257 67.6282L7.56401 37.3892C5.53898 34.1175 4.42109 30.3659 4.3251 26.5194C4.22911 22.673 5.15847 18.8703 7.01778 15.5017C8.8771 12.1331 11.5994 9.31993 14.9052 7.35109C18.2109 5.38224 21.9811 4.3286 25.8286 4.29832C29.6762 4.26804 33.4625 5.26222 36.7989 7.1788C40.1352 9.09538 42.9014 11.8653 44.8135 15.2042C46.7256 18.5432 47.7147 22.3308 47.6792 26.1783C47.6438 30.0258 46.5851 33.7945 44.6118 37.0977Z" fill="#747C8B" fill-opacity="0.3"/>
<path d="M25.9968 12.9935C23.4257 12.9935 20.9122 13.756 18.7744 15.1844C16.6365 16.6129 14.9702 18.6432 13.9862 21.0187C13.0023 23.3942 12.7449 26.0081 13.2465 28.5298C13.7481 31.0516 14.9862 33.368 16.8043 35.1861C18.6224 37.0042 20.9389 38.2423 23.4606 38.7439C25.9824 39.2456 28.5963 38.9881 30.9717 38.0042C33.3472 37.0202 35.3775 35.354 36.806 33.2161C38.2345 31.0782 38.9969 28.5648 38.9969 25.9936C38.9928 22.547 37.6219 19.2428 35.1848 16.8056C32.7476 14.3685 29.4434 12.9976 25.9968 12.9935ZM25.9968 34.6898C24.2762 34.6928 22.5934 34.1854 21.1613 33.2317C19.7292 32.278 18.6122 30.9209 17.9517 29.3321C17.2911 27.7434 17.1167 25.9944 17.4505 24.3065C17.7843 22.6186 18.6114 21.0677 19.8269 19.85C21.0425 18.6322 22.592 17.8025 24.2793 17.4657C25.9666 17.1289 27.7159 17.3002 29.3058 17.958C30.8957 18.6157 32.2548 19.7303 33.211 21.1607C34.1672 22.5911 34.6776 24.273 34.6776 25.9936C34.6756 28.2967 33.7609 30.5051 32.1338 32.1351C30.5067 33.765 28.2999 34.6837 25.9968 34.6898Z" fill="#747C8B" fill-opacity="0.3"/>
</svg>
