<svg width="17" height="25" viewBox="0 0 17 25" fill="none" xmlns="http://www.w3.org/2000/svg">
<path d="M8.4999 0C6.98623 0.000253919 5.50008 0.404643 4.19498 1.17139C2.88988 1.93814 1.81317 3.03943 1.07607 4.3615C0.338971 5.68357 -0.0317734 7.17847 0.00213372 8.69176C0.0360408 10.205 0.473372 11.6818 1.26895 12.9696L8.01582 23.8423C8.0794 23.9447 8.16805 24.0292 8.27338 24.0878C8.37871 24.1464 8.49725 24.1772 8.61778 24.1772C8.73926 24.1761 8.85843 24.1438 8.96385 24.0834C9.06926 24.023 9.15737 23.9366 9.21973 23.8323L15.8011 12.8542C16.5703 11.5638 16.9838 10.0927 16.9995 8.5905C17.0153 7.08834 16.6327 5.60884 15.8908 4.30261C15.1488 2.99637 14.074 1.91007 12.7758 1.15428C11.4775 0.398491 10.0021 0.000215332 8.4999 0V0ZM14.5846 12.1281L8.60649 22.1092L2.47285 12.2234C1.81082 11.1538 1.44535 9.92732 1.41397 8.66982C1.38259 7.41232 1.68642 6.16912 2.29428 5.06785C2.90213 3.96657 3.7921 3.0469 4.87284 2.40324C5.95357 1.75958 7.18613 1.41512 8.44398 1.40522C9.70183 1.39532 10.9397 1.72034 12.0304 2.34692C13.1211 2.97349 14.0255 3.87904 14.6506 4.97061C15.2757 6.06219 15.599 7.30045 15.5874 8.55828C15.5759 9.81612 15.2297 11.0482 14.5846 12.1281Z" fill="#747C8B"/>
<path d="M8.49907 4.24815C7.65849 4.24815 6.83679 4.49742 6.13787 4.96442C5.43896 5.43142 4.8942 6.09518 4.57253 6.87177C4.25085 7.64836 4.1667 8.50291 4.33069 9.32733C4.49468 10.1518 4.89945 10.909 5.49383 11.5034C6.08821 12.0978 6.8455 12.5026 7.66992 12.6666C8.49435 12.8305 9.34888 12.7464 10.1255 12.4247C10.9021 12.103 11.5658 11.5583 12.0328 10.8594C12.4998 10.1605 12.7491 9.33877 12.7491 8.49819C12.7478 7.37142 12.2996 6.29117 11.5028 5.49442C10.7061 4.69767 9.62584 4.24948 8.49907 4.24815ZM8.49907 11.3412C7.93657 11.3421 7.3864 11.1763 6.91822 10.8645C6.45004 10.5527 6.08487 10.109 5.86892 9.58962C5.65298 9.07023 5.59595 8.49845 5.70508 7.94663C5.81421 7.39482 6.08459 6.88778 6.48199 6.48968C6.87938 6.09158 7.38593 5.82032 7.93755 5.71021C8.48917 5.60011 9.06106 5.65612 9.58084 5.87114C10.1006 6.08617 10.5449 6.45056 10.8575 6.91819C11.1702 7.38583 11.337 7.93569 11.337 8.49819C11.3363 9.25112 11.0373 9.97309 10.5054 10.506C9.97344 11.0388 9.252 11.3392 8.49907 11.3412Z" fill="#747C8B"/>
</svg>
