<svg width="77" height="76" viewBox="0 0 77 76" fill="none" xmlns="http://www.w3.org/2000/svg">
<path d="M75.0959 0.691299C74.8106 0.43823 74.4756 0.247404 74.1124 0.13099C73.7492 0.0145765 73.3657 -0.0248705 72.9864 0.0151648L24.129 5.44227C23.4628 5.51372 22.8468 5.82991 22.4005 6.32958C21.9541 6.82924 21.7091 7.47681 21.7129 8.1468V56.5084C19.2527 55.039 16.4379 54.269 13.5723 54.2817C6.08971 54.2817 0 59.1543 0 65.1404C0 71.1264 6.08971 75.9991 13.5723 75.9991C21.0548 75.9991 27.1445 71.1309 27.1445 65.1404V24.1531L70.5704 19.312V51.0678C68.1092 49.6015 65.2945 48.8347 62.4297 48.8501C54.9472 48.8501 48.8574 53.7182 48.8574 59.7088C48.8574 65.6993 54.9472 70.5675 62.4297 70.5675C69.9122 70.5675 76.002 65.6993 76.002 59.7088V2.71519C76.0025 2.33298 75.9221 1.95498 75.7659 1.60612C75.6097 1.25727 75.3814 0.945473 75.0959 0.691299ZM13.5723 70.5675C9.15936 70.5675 5.43161 68.0793 5.43161 65.1584C5.43161 62.2375 9.15936 59.7493 13.5723 59.7493C17.9852 59.7493 21.7129 62.2375 21.7129 65.1584C21.7129 68.0793 17.9852 70.5675 13.5723 70.5675ZM62.4297 65.1584C58.0168 65.1584 54.289 62.6702 54.289 59.7493C54.289 56.8284 58.0168 54.3403 62.4297 54.3403C66.8426 54.3403 70.5704 56.8284 70.5704 59.7493C70.5704 62.6702 66.8426 65.1404 62.4252 65.1404L62.4297 65.1584ZM70.5704 13.8534L27.14 18.681V10.5674L70.5658 5.72624L70.5704 13.8534Z" fill="#747C8B" fill-opacity="0.3"/>
</svg>
