<svg width="67" height="68" viewBox="0 0 67 68" fill="none" xmlns="http://www.w3.org/2000/svg">
<path d="M44.5675 40.2697L28.8056 29.7604C28.5096 29.5665 28.1668 29.4559 27.8133 29.4401C27.4598 29.4244 27.1086 29.5043 26.7965 29.6712C26.4845 29.8381 26.2232 30.0859 26.04 30.3886C25.8569 30.6914 25.7586 31.038 25.7556 31.3918V52.4143C25.7586 52.7682 25.8569 53.1147 26.04 53.4174C26.2232 53.7202 26.4845 53.9681 26.7965 54.135C27.1086 54.3019 27.4598 54.3816 27.8133 54.3659C28.1668 54.3502 28.5096 54.2396 28.8056 54.0456L44.5675 43.5364C44.8349 43.356 45.0539 43.1128 45.2053 42.828C45.3567 42.5432 45.4359 42.2256 45.4359 41.903C45.4359 41.5805 45.3567 41.2629 45.2053 40.9782C45.0539 40.6934 44.8349 40.4501 44.5675 40.2697ZM29.6764 48.7457V35.0604L39.9414 41.905L29.6764 48.7457Z" fill="#747C8B" fill-opacity="0.3"/>
<path d="M65.018 16.8163H1.97024C1.4477 16.8163 0.946563 17.0239 0.577071 17.3934C0.207579 17.7629 0 18.264 0 18.7866L0 65.0321C0 65.5546 0.207579 66.0558 0.577071 66.4253C0.946563 66.7948 1.4477 67.0023 1.97024 67.0023H65.018C65.5406 67.0023 66.0417 66.7948 66.4112 66.4253C66.7807 66.0558 66.9883 65.5546 66.9883 65.0321V18.7787C66.9862 18.2575 66.7777 17.7584 66.4084 17.3906C66.0391 17.0228 65.5392 16.8163 65.018 16.8163ZM63.0478 63.0619H3.94049V20.7411H63.0478V63.0619Z" fill="#747C8B" fill-opacity="0.3"/>
<path d="M58.7078 8.41201H8.26956C7.74702 8.41201 7.24588 8.61959 6.87639 8.98908C6.50689 9.35858 6.29932 9.85972 6.29932 10.3823C6.29932 10.9048 6.50689 11.4059 6.87639 11.7754C7.24588 12.1449 7.74702 12.3525 8.26956 12.3525H58.7078C59.2303 12.3525 59.7315 12.1449 60.101 11.7754C60.4704 11.4059 60.678 10.9048 60.678 10.3823C60.678 9.85972 60.4704 9.35858 60.101 8.98908C59.7315 8.61959 59.2303 8.41201 58.7078 8.41201Z" fill="#747C8B" fill-opacity="0.3"/>
<path d="M52.4132 0H14.5845C14.062 0 13.5608 0.207579 13.1913 0.577071C12.8218 0.946563 12.6143 1.4477 12.6143 1.97024C12.6143 2.49278 12.8218 2.99392 13.1913 3.36342C13.5608 3.73291 14.062 3.94049 14.5845 3.94049H52.4132C52.9357 3.94049 53.4368 3.73291 53.8063 3.36342C54.1758 2.99392 54.3834 2.49278 54.3834 1.97024C54.3834 1.4477 54.1758 0.946563 53.8063 0.577071C53.4368 0.207579 52.9357 0 52.4132 0V0Z" fill="#747C8B" fill-opacity="0.3"/>
</svg>
