<svg width="26" height="22" viewBox="0 0 26 22" fill="none" xmlns="http://www.w3.org/2000/svg">
<path d="M14.0351 17.8454C14.9846 17.8911 15.874 17.9345 16.7634 17.9755C17.4846 18.0092 17.6775 17.8494 17.7352 17.1554C17.8218 16.1312 17.9017 15.1054 17.9858 14.0612C18.5752 13.9945 19.134 13.9463 19.6871 13.866C20.2872 13.7785 20.4661 13.4925 20.2443 12.9334C19.6228 11.3646 18.9486 9.81435 18.3584 8.23434C18.032 7.362 17.8515 6.43905 17.5695 5.54904C17.1566 4.24133 16.498 3.06214 15.5138 2.07252C14.1843 0.735893 12.5332 0.130234 10.6506 0.0258099C8.78442 -0.0778108 6.98915 0.108546 5.30598 0.989724C3.21314 2.08457 1.95118 3.75294 1.61158 6.03742C1.46156 7.04551 1.52832 8.06967 1.79457 9.06571C1.88029 9.38863 1.84484 9.5533 1.47557 9.72198C0.568041 10.1373 0.0652332 10.8626 0.008358 11.8707C-0.0378017 12.6804 0.108921 13.4098 0.694157 14.0234C1.08157 14.4299 1.53162 14.7207 2.10861 14.76C2.45234 14.7841 2.57021 14.9175 2.56691 15.2629C2.55042 17.0437 2.55949 18.8245 2.55949 20.6046C2.55949 20.7251 2.55702 20.8455 2.56197 20.966C2.5801 21.3677 2.82244 21.6424 3.16368 21.6536C3.5173 21.6649 3.80827 21.3709 3.80909 20.9644C3.81404 18.7281 3.81404 16.4927 3.80909 14.2564C3.80827 13.8266 3.60385 13.6323 3.1538 13.5953C2.92135 13.576 2.68643 13.5817 2.45563 13.5543C1.72697 13.4668 1.29917 12.9945 1.2695 12.2595C1.2357 11.412 1.56706 10.9429 2.32045 10.7726C2.36084 10.7638 2.39958 10.7494 2.43915 10.7405C3.2354 10.571 3.36975 10.3389 3.20325 9.5549C3.06477 8.90185 2.92547 8.24398 2.86695 7.58129C2.66335 5.27914 3.87751 3.13765 6.03793 2.04441C8.10769 0.997756 10.2681 0.960003 12.4335 1.56004C14.1414 2.03316 15.2583 3.25894 15.9977 4.79718C16.4114 5.65828 16.6868 6.56195 16.7346 7.52908C16.7494 7.83512 16.9266 8.13715 17.047 8.43355C17.6116 9.82239 18.1828 11.2096 18.7845 12.6756C18.4342 12.7246 18.121 12.7872 17.8053 12.8089C16.8425 12.8748 16.728 13.0017 16.6736 13.9503C16.6216 14.8556 16.5318 15.7593 16.4543 16.7152C15.5328 16.6638 14.6582 16.622 13.7853 16.565C12.9511 16.5103 12.7574 16.6782 12.7558 17.504C12.7533 18.5747 12.755 19.6463 12.7558 20.717C12.7558 20.8239 12.7574 20.9315 12.7714 21.0375C12.8184 21.4038 13.0896 21.6641 13.407 21.656C13.7375 21.6472 14.0186 21.3588 14.0268 20.9701C14.0416 20.2471 14.0326 19.5242 14.0334 18.8012C14.0351 18.5081 14.0351 18.2157 14.0351 17.8454Z" fill="#747C8B"/>
<path d="M25.666 16.1422C25.6042 14.6272 25.1253 13.3557 24.071 12.3146C23.7867 12.0335 23.4561 12.0022 23.1998 12.2247C22.8981 12.4857 22.8635 12.8303 23.1487 13.1452C23.682 13.7356 24.1106 14.3782 24.2672 15.1622C24.5475 16.5623 24.2235 17.8025 23.255 18.8893C23.1025 19.0604 22.969 19.3464 23.0011 19.5536C23.0811 20.0749 23.6647 20.2091 24.0694 19.8203C24.9052 19.0154 25.3915 18.0322 25.5762 16.9061C25.6215 16.6298 25.6421 16.3494 25.666 16.1422Z" fill="#747C8B"/>
<path d="M22.2733 13.475C22.106 13.6051 21.8727 13.7023 21.8002 13.867C21.7211 14.0461 21.7384 14.3072 21.8101 14.4976C21.8917 14.7153 22.1011 14.8831 22.2181 15.0928C22.65 15.8639 22.5528 16.7395 21.9783 17.4094C21.9255 17.4712 21.8703 17.5315 21.8249 17.5982C21.6255 17.8905 21.6609 18.2223 21.9107 18.4279C22.172 18.6432 22.5091 18.644 22.763 18.3918C24.1049 17.056 24.0554 14.9908 22.7226 13.7112C22.6212 13.6148 22.4654 13.5738 22.2733 13.475Z" fill="#747C8B"/>
</svg>
