<svg width="23" height="24" viewBox="0 0 23 24" fill="none" xmlns="http://www.w3.org/2000/svg">
<path d="M15.3017 13.8249L9.88995 10.2166C9.78833 10.1501 9.67064 10.1121 9.54926 10.1067C9.42788 10.1013 9.3073 10.1287 9.20017 10.186C9.09303 10.2433 9.00331 10.3284 8.94042 10.4323C8.87753 10.5363 8.8438 10.6553 8.84277 10.7768V17.9947C8.8438 18.1162 8.87753 18.2352 8.94042 18.3391C9.00331 18.4431 9.09303 18.5282 9.20017 18.5855C9.3073 18.6428 9.42788 18.6702 9.54926 18.6648C9.67064 18.6594 9.78833 18.6214 9.88995 18.5548L15.3017 14.9465C15.3935 14.8846 15.4687 14.8011 15.5207 14.7033C15.5727 14.6055 15.5999 14.4965 15.5999 14.3857C15.5999 14.275 15.5727 14.166 15.5207 14.0682C15.4687 13.9704 15.3935 13.8869 15.3017 13.8249ZM10.1889 16.7351V12.0363L13.7134 14.3864L10.1889 16.7351Z" fill="#747C8B"/>
<path d="M22.3211 5.7732H0.676397C0.497006 5.7732 0.324961 5.84445 0.198112 5.9713C0.0712631 6.09815 0 6.27021 0 6.4496L0 22.326C0 22.5054 0.0712631 22.6774 0.198112 22.8043C0.324961 22.9311 0.497006 23.0024 0.676397 23.0024H22.3211C22.5005 23.0024 22.6725 22.9311 22.7994 22.8043C22.9262 22.6774 22.9975 22.5054 22.9975 22.326V6.44689C22.9968 6.26797 22.9252 6.09662 22.7984 5.97035C22.6717 5.84409 22.5 5.7732 22.3211 5.7732ZM21.6447 21.6496H1.35279V7.12059H21.6447V21.6496Z" fill="#747C8B"/>
<path d="M20.1553 2.8882H2.83948C2.66009 2.8882 2.48805 2.95946 2.3612 3.08631C2.23435 3.21316 2.16309 3.3852 2.16309 3.5646C2.16309 3.74399 2.23435 3.91603 2.3612 4.04288C2.48805 4.16973 2.66009 4.24099 2.83948 4.24099H20.1553C20.3346 4.24099 20.5067 4.16973 20.6335 4.04288C20.7604 3.91603 20.8317 3.74399 20.8317 3.5646C20.8317 3.3852 20.7604 3.21316 20.6335 3.08631C20.5067 2.95946 20.3346 2.8882 20.1553 2.8882Z" fill="#747C8B"/>
<path d="M17.9943 0H5.00745C4.82806 0 4.65602 0.0712631 4.52917 0.198112C4.40232 0.324961 4.33105 0.497006 4.33105 0.676397C4.33105 0.855789 4.40232 1.02783 4.52917 1.15468C4.65602 1.28153 4.82806 1.35279 5.00745 1.35279H17.9943C18.1737 1.35279 18.3457 1.28153 18.4726 1.15468C18.5994 1.02783 18.6707 0.855789 18.6707 0.676397C18.6707 0.497006 18.5994 0.324961 18.4726 0.198112C18.3457 0.0712631 18.1737 0 17.9943 0V0Z" fill="#747C8B"/>
</svg>
