<svg width="187" height="175" viewBox="0 0 187 175" fill="none" xmlns="http://www.w3.org/2000/svg">
<path d="M20.952 121.8H25.384C26.5467 121.8 27.576 122.04 28.472 122.52C29.3787 123 30.0827 123.667 30.584 124.52C31.0853 125.363 31.336 126.323 31.336 127.4C31.336 128.477 31.0853 129.443 30.584 130.296C30.0827 131.139 29.3787 131.8 28.472 132.28C27.576 132.76 26.5467 133 25.384 133H20.952V121.8ZM25.32 132.264C26.3547 132.264 27.2667 132.061 28.056 131.656C28.8453 131.24 29.4533 130.664 29.88 129.928C30.3067 129.192 30.52 128.349 30.52 127.4C30.52 126.451 30.3067 125.608 29.88 124.872C29.4533 124.136 28.8453 123.565 28.056 123.16C27.2667 122.744 26.3547 122.536 25.32 122.536H21.768V132.264H25.32ZM34.6859 126.472C34.9419 125.864 35.3419 125.4 35.8859 125.08C36.4299 124.749 37.0912 124.584 37.8699 124.584V125.368L37.6779 125.352C36.7499 125.352 36.0245 125.645 35.5019 126.232C34.9792 126.808 34.7179 127.613 34.7179 128.648V133H33.9179V124.648H34.6859V126.472ZM42.8932 124.584C43.9279 124.584 44.7225 124.851 45.2772 125.384C45.8319 125.907 46.1092 126.68 46.1092 127.704V133H45.3412V131.512C45.0745 132.003 44.6852 132.387 44.1732 132.664C43.6612 132.931 43.0479 133.064 42.3332 133.064C41.4052 133.064 40.6692 132.845 40.1252 132.408C39.5919 131.971 39.3252 131.395 39.3252 130.68C39.3252 129.987 39.5705 129.427 40.0612 129C40.5625 128.563 41.3572 128.344 42.4452 128.344H45.3092V127.672C45.3092 126.893 45.0959 126.301 44.6692 125.896C44.2532 125.491 43.6399 125.288 42.8292 125.288C42.2745 125.288 41.7412 125.384 41.2292 125.576C40.7279 125.768 40.3012 126.024 39.9492 126.344L39.5492 125.768C39.9652 125.395 40.4665 125.107 41.0532 124.904C41.6399 124.691 42.2532 124.584 42.8932 124.584ZM42.4452 132.408C43.1385 132.408 43.7252 132.248 44.2052 131.928C44.6959 131.608 45.0639 131.144 45.3092 130.536V128.968H42.4612C41.6399 128.968 41.0425 129.117 40.6692 129.416C40.3065 129.715 40.1252 130.125 40.1252 130.648C40.1252 131.192 40.3279 131.624 40.7332 131.944C41.1385 132.253 41.7092 132.408 42.4452 132.408ZM56.9441 124.648V132.104C56.9441 133.491 56.6081 134.515 55.9361 135.176C55.2641 135.837 54.2507 136.168 52.8961 136.168C52.1281 136.168 51.4027 136.051 50.7201 135.816C50.0374 135.581 49.4881 135.256 49.0721 134.84L49.5041 134.232C49.9201 134.616 50.4214 134.915 51.0081 135.128C51.5947 135.341 52.2187 135.448 52.8801 135.448C53.9894 135.448 54.8107 135.181 55.3441 134.648C55.8774 134.125 56.1441 133.309 56.1441 132.2V130.792C55.8027 131.4 55.3281 131.869 54.7201 132.2C54.1121 132.531 53.4294 132.696 52.6721 132.696C51.8934 132.696 51.1841 132.525 50.5441 132.184C49.9147 131.832 49.4187 131.347 49.0561 130.728C48.6934 130.109 48.5121 129.411 48.5121 128.632C48.5121 127.853 48.6934 127.155 49.0561 126.536C49.4187 125.917 49.9147 125.437 50.5441 125.096C51.1841 124.755 51.8934 124.584 52.6721 124.584C53.4401 124.584 54.1334 124.755 54.7521 125.096C55.3707 125.437 55.8454 125.917 56.1761 126.536V124.648H56.9441ZM52.7361 131.976C53.3867 131.976 53.9734 131.837 54.4961 131.56C55.0187 131.272 55.4241 130.877 55.7121 130.376C56.0107 129.864 56.1601 129.283 56.1601 128.632C56.1601 127.981 56.0107 127.405 55.7121 126.904C55.4241 126.403 55.0187 126.013 54.4961 125.736C53.9734 125.448 53.3867 125.304 52.7361 125.304C52.0854 125.304 51.4987 125.448 50.9761 125.736C50.4641 126.013 50.0587 126.403 49.7601 126.904C49.4721 127.405 49.3281 127.981 49.3281 128.632C49.3281 129.283 49.4721 129.864 49.7601 130.376C50.0587 130.877 50.4641 131.272 50.9761 131.56C51.4987 131.837 52.0854 131.976 52.7361 131.976ZM67.2619 124.584C68.2966 124.584 69.0912 124.851 69.6459 125.384C70.2006 125.907 70.4779 126.68 70.4779 127.704V133H69.7099V131.512C69.4432 132.003 69.0539 132.387 68.5419 132.664C68.0299 132.931 67.4166 133.064 66.7019 133.064C65.7739 133.064 65.0379 132.845 64.4939 132.408C63.9606 131.971 63.6939 131.395 63.6939 130.68C63.6939 129.987 63.9392 129.427 64.4299 129C64.9312 128.563 65.7259 128.344 66.8139 128.344H69.6779V127.672C69.6779 126.893 69.4646 126.301 69.0379 125.896C68.6219 125.491 68.0086 125.288 67.1979 125.288C66.6432 125.288 66.1099 125.384 65.5979 125.576C65.0966 125.768 64.6699 126.024 64.3179 126.344L63.9179 125.768C64.3339 125.395 64.8352 125.107 65.4219 124.904C66.0086 124.691 66.6219 124.584 67.2619 124.584ZM66.8139 132.408C67.5072 132.408 68.0939 132.248 68.5739 131.928C69.0646 131.608 69.4326 131.144 69.6779 130.536V128.968H66.8299C66.0086 128.968 65.4112 129.117 65.0379 129.416C64.6752 129.715 64.4939 130.125 64.4939 130.648C64.4939 131.192 64.6966 131.624 65.1019 131.944C65.5072 132.253 66.0779 132.408 66.8139 132.408ZM77.8896 124.648H78.6896V133H77.8896V124.648ZM78.2896 122.616C78.1083 122.616 77.9536 122.557 77.8256 122.44C77.6976 122.312 77.6336 122.157 77.6336 121.976C77.6336 121.795 77.6976 121.64 77.8256 121.512C77.9536 121.384 78.1083 121.32 78.2896 121.32C78.4709 121.32 78.6256 121.384 78.7536 121.512C78.8816 121.629 78.9456 121.779 78.9456 121.96C78.9456 122.141 78.8816 122.296 78.7536 122.424C78.6256 122.552 78.4709 122.616 78.2896 122.616ZM92.4646 124.584C93.4993 124.584 94.3099 124.888 94.8966 125.496C95.4939 126.104 95.7926 126.979 95.7926 128.12V133H94.9926V128.184C94.9926 127.245 94.7633 126.531 94.3046 126.04C93.8459 125.549 93.2059 125.304 92.3846 125.304C91.4459 125.304 90.6993 125.597 90.1446 126.184C89.6006 126.771 89.3286 127.56 89.3286 128.552V133H88.5286V128.184C88.5286 127.245 88.2993 126.531 87.8406 126.04C87.3819 125.549 86.7419 125.304 85.9206 125.304C84.9819 125.304 84.2353 125.597 83.6806 126.184C83.1366 126.771 82.8646 127.56 82.8646 128.552V133H82.0646V124.648H82.8326V126.44C83.1099 125.853 83.5206 125.4 84.0646 125.08C84.6193 124.749 85.2753 124.584 86.0326 124.584C86.7899 124.584 87.4299 124.755 87.9526 125.096C88.4859 125.437 88.8646 125.939 89.0886 126.6C89.3659 125.981 89.7979 125.491 90.3846 125.128C90.9819 124.765 91.6753 124.584 92.4646 124.584ZM101.915 124.584C102.95 124.584 103.744 124.851 104.299 125.384C104.854 125.907 105.131 126.68 105.131 127.704V133H104.363V131.512C104.096 132.003 103.707 132.387 103.195 132.664C102.683 132.931 102.07 133.064 101.355 133.064C100.427 133.064 99.691 132.845 99.147 132.408C98.6136 131.971 98.347 131.395 98.347 130.68C98.347 129.987 98.5923 129.427 99.083 129C99.5843 128.563 100.379 128.344 101.467 128.344H104.331V127.672C104.331 126.893 104.118 126.301 103.691 125.896C103.275 125.491 102.662 125.288 101.851 125.288C101.296 125.288 100.763 125.384 100.251 125.576C99.7496 125.768 99.323 126.024 98.971 126.344L98.571 125.768C98.987 125.395 99.4883 125.107 100.075 124.904C100.662 124.691 101.275 124.584 101.915 124.584ZM101.467 132.408C102.16 132.408 102.747 132.248 103.227 131.928C103.718 131.608 104.086 131.144 104.331 130.536V128.968H101.483C100.662 128.968 100.064 129.117 99.691 129.416C99.3283 129.715 99.147 130.125 99.147 130.648C99.147 131.192 99.3496 131.624 99.755 131.944C100.16 132.253 100.731 132.408 101.467 132.408ZM115.966 124.648V132.104C115.966 133.491 115.63 134.515 114.958 135.176C114.286 135.837 113.272 136.168 111.918 136.168C111.15 136.168 110.424 136.051 109.742 135.816C109.059 135.581 108.51 135.256 108.094 134.84L108.526 134.232C108.942 134.616 109.443 134.915 110.03 135.128C110.616 135.341 111.24 135.448 111.902 135.448C113.011 135.448 113.832 135.181 114.366 134.648C114.899 134.125 115.166 133.309 115.166 132.2V130.792C114.824 131.4 114.35 131.869 113.742 132.2C113.134 132.531 112.451 132.696 111.694 132.696C110.915 132.696 110.206 132.525 109.566 132.184C108.936 131.832 108.44 131.347 108.078 130.728C107.715 130.109 107.534 129.411 107.534 128.632C107.534 127.853 107.715 127.155 108.078 126.536C108.44 125.917 108.936 125.437 109.566 125.096C110.206 124.755 110.915 124.584 111.694 124.584C112.462 124.584 113.155 124.755 113.774 125.096C114.392 125.437 114.867 125.917 115.198 126.536V124.648H115.966ZM111.758 131.976C112.408 131.976 112.995 131.837 113.518 131.56C114.04 131.272 114.446 130.877 114.734 130.376C115.032 129.864 115.182 129.283 115.182 128.632C115.182 127.981 115.032 127.405 114.734 126.904C114.446 126.403 114.04 126.013 113.518 125.736C112.995 125.448 112.408 125.304 111.758 125.304C111.107 125.304 110.52 125.448 109.998 125.736C109.486 126.013 109.08 126.403 108.782 126.904C108.494 127.405 108.35 127.981 108.35 128.632C108.35 129.283 108.494 129.864 108.782 130.376C109.08 130.877 109.486 131.272 109.998 131.56C110.52 131.837 111.107 131.976 111.758 131.976ZM126.411 129.016H119.227C119.248 129.667 119.414 130.248 119.723 130.76C120.032 131.261 120.448 131.651 120.971 131.928C121.504 132.205 122.102 132.344 122.763 132.344C123.307 132.344 123.808 132.248 124.267 132.056C124.736 131.853 125.126 131.56 125.435 131.176L125.899 131.704C125.536 132.141 125.078 132.477 124.523 132.712C123.979 132.947 123.387 133.064 122.747 133.064C121.915 133.064 121.174 132.883 120.523 132.52C119.872 132.157 119.36 131.656 118.987 131.016C118.624 130.376 118.443 129.645 118.443 128.824C118.443 128.013 118.614 127.288 118.955 126.648C119.307 125.997 119.787 125.491 120.395 125.128C121.003 124.765 121.686 124.584 122.443 124.584C123.2 124.584 123.878 124.765 124.475 125.128C125.083 125.48 125.558 125.976 125.899 126.616C126.251 127.256 126.427 127.981 126.427 128.792L126.411 129.016ZM122.443 125.288C121.856 125.288 121.328 125.421 120.859 125.688C120.39 125.944 120.011 126.312 119.723 126.792C119.446 127.261 119.286 127.795 119.243 128.392H125.643C125.611 127.795 125.451 127.261 125.163 126.792C124.875 126.323 124.496 125.955 124.027 125.688C123.558 125.421 123.03 125.288 122.443 125.288ZM137.098 124.584C138.143 124.584 138.97 124.888 139.578 125.496C140.186 126.104 140.49 126.979 140.49 128.12V133H139.69V128.184C139.69 127.245 139.45 126.531 138.97 126.04C138.5 125.549 137.839 125.304 136.986 125.304C136.004 125.304 135.231 125.597 134.666 126.184C134.1 126.771 133.818 127.56 133.818 128.552V133H133.018V121.128H133.818V126.392C134.106 125.816 134.532 125.373 135.098 125.064C135.663 124.744 136.33 124.584 137.098 124.584ZM150.858 129.016H143.674C143.695 129.667 143.861 130.248 144.17 130.76C144.479 131.261 144.895 131.651 145.418 131.928C145.951 132.205 146.549 132.344 147.21 132.344C147.754 132.344 148.255 132.248 148.714 132.056C149.183 131.853 149.573 131.56 149.882 131.176L150.346 131.704C149.983 132.141 149.525 132.477 148.97 132.712C148.426 132.947 147.834 133.064 147.194 133.064C146.362 133.064 145.621 132.883 144.97 132.52C144.319 132.157 143.807 131.656 143.434 131.016C143.071 130.376 142.89 129.645 142.89 128.824C142.89 128.013 143.061 127.288 143.402 126.648C143.754 125.997 144.234 125.491 144.842 125.128C145.45 124.765 146.133 124.584 146.89 124.584C147.647 124.584 148.325 124.765 148.922 125.128C149.53 125.48 150.005 125.976 150.346 126.616C150.698 127.256 150.874 127.981 150.874 128.792L150.858 129.016ZM146.89 125.288C146.303 125.288 145.775 125.421 145.306 125.688C144.837 125.944 144.458 126.312 144.17 126.792C143.893 127.261 143.733 127.795 143.69 128.392H150.09C150.058 127.795 149.898 127.261 149.61 126.792C149.322 126.323 148.943 125.955 148.474 125.688C148.005 125.421 147.477 125.288 146.89 125.288ZM154.12 126.472C154.376 125.864 154.776 125.4 155.32 125.08C155.864 124.749 156.525 124.584 157.304 124.584V125.368L157.112 125.352C156.184 125.352 155.459 125.645 154.936 126.232C154.413 126.808 154.152 127.613 154.152 128.648V133H153.352V124.648H154.12V126.472ZM166.489 129.016H159.305C159.327 129.667 159.492 130.248 159.801 130.76C160.111 131.261 160.527 131.651 161.049 131.928C161.583 132.205 162.18 132.344 162.841 132.344C163.385 132.344 163.887 132.248 164.345 132.056C164.815 131.853 165.204 131.56 165.513 131.176L165.977 131.704C165.615 132.141 165.156 132.477 164.601 132.712C164.057 132.947 163.465 133.064 162.825 133.064C161.993 133.064 161.252 132.883 160.601 132.52C159.951 132.157 159.439 131.656 159.065 131.016C158.703 130.376 158.521 129.645 158.521 128.824C158.521 128.013 158.692 127.288 159.033 126.648C159.385 125.997 159.865 125.491 160.473 125.128C161.081 124.765 161.764 124.584 162.521 124.584C163.279 124.584 163.956 124.765 164.553 125.128C165.161 125.48 165.636 125.976 165.977 126.616C166.329 127.256 166.505 127.981 166.505 128.792L166.489 129.016ZM162.521 125.288C161.935 125.288 161.407 125.421 160.937 125.688C160.468 125.944 160.089 126.312 159.801 126.792C159.524 127.261 159.364 127.795 159.321 128.392H165.721C165.689 127.795 165.529 127.261 165.241 126.792C164.953 126.323 164.575 125.955 164.105 125.688C163.636 125.421 163.108 125.288 162.521 125.288Z" fill="#747C8B" fill-opacity="0.7"/>
<path d="M55.88 153.224C56.616 153.384 57.1813 153.704 57.576 154.184C57.9813 154.653 58.184 155.261 58.184 156.008C58.184 156.968 57.8267 157.709 57.112 158.232C56.408 158.744 55.3627 159 53.976 159H48.824V147.8H53.656C54.904 147.8 55.8693 148.051 56.552 148.552C57.2453 149.053 57.592 149.763 57.592 150.68C57.592 151.299 57.4373 151.827 57.128 152.264C56.8293 152.691 56.4133 153.011 55.88 153.224ZM50.008 148.776V152.84H53.576C54.4827 152.84 55.1813 152.669 55.672 152.328C56.1627 151.976 56.408 151.469 56.408 150.808C56.408 150.147 56.1627 149.645 55.672 149.304C55.1813 148.952 54.4827 148.776 53.576 148.776H50.008ZM53.96 158.024C54.9627 158.024 55.72 157.853 56.232 157.512C56.744 157.171 57 156.637 57 155.912C57 154.515 55.9867 153.816 53.96 153.816H50.008V158.024H53.96ZM61.7376 152.232C62.0043 151.667 62.3989 151.24 62.9216 150.952C63.4549 150.664 64.1109 150.52 64.8896 150.52V151.624L64.6176 151.608C63.7323 151.608 63.0389 151.88 62.5376 152.424C62.0363 152.968 61.7856 153.731 61.7856 154.712V159H60.6496V150.584H61.7376V152.232ZM70.3115 159.08C69.5008 159.08 68.7701 158.899 68.1195 158.536C67.4688 158.163 66.9568 157.651 66.5835 157C66.2101 156.349 66.0235 155.613 66.0235 154.792C66.0235 153.971 66.2101 153.235 66.5835 152.584C66.9568 151.933 67.4688 151.427 68.1195 151.064C68.7701 150.701 69.5008 150.52 70.3115 150.52C71.1221 150.52 71.8528 150.701 72.5035 151.064C73.1541 151.427 73.6608 151.933 74.0235 152.584C74.3968 153.235 74.5835 153.971 74.5835 154.792C74.5835 155.613 74.3968 156.349 74.0235 157C73.6608 157.651 73.1541 158.163 72.5035 158.536C71.8528 158.899 71.1221 159.08 70.3115 159.08ZM70.3115 158.072C70.9088 158.072 71.4421 157.939 71.9115 157.672C72.3915 157.395 72.7648 157.005 73.0315 156.504C73.2981 156.003 73.4315 155.432 73.4315 154.792C73.4315 154.152 73.2981 153.581 73.0315 153.08C72.7648 152.579 72.3915 152.195 71.9115 151.928C71.4421 151.651 70.9088 151.512 70.3115 151.512C69.7141 151.512 69.1755 151.651 68.6955 151.928C68.2261 152.195 67.8528 152.579 67.5755 153.08C67.3088 153.581 67.1755 154.152 67.1755 154.792C67.1755 155.432 67.3088 156.003 67.5755 156.504C67.8528 157.005 68.2261 157.395 68.6955 157.672C69.1755 157.939 69.7141 158.072 70.3115 158.072ZM89.0234 150.584L85.8394 159H84.7674L82.1114 152.104L79.4554 159H78.3834L75.2154 150.584H76.3034L78.9434 157.736L81.6474 150.584H82.6234L85.3114 157.736L87.9834 150.584H89.0234ZM92.8993 159.08C92.2166 159.08 91.5606 158.984 90.9313 158.792C90.3126 158.589 89.8273 158.339 89.4753 158.04L89.9873 157.144C90.3393 157.421 90.782 157.651 91.3153 157.832C91.8486 158.003 92.4033 158.088 92.9793 158.088C93.7473 158.088 94.3126 157.971 94.6753 157.736C95.0486 157.491 95.2353 157.149 95.2353 156.712C95.2353 156.403 95.134 156.163 94.9313 155.992C94.7286 155.811 94.4726 155.677 94.1633 155.592C93.854 155.496 93.4433 155.405 92.9313 155.32C92.2486 155.192 91.6993 155.064 91.2833 154.936C90.8673 154.797 90.51 154.568 90.2113 154.248C89.9233 153.928 89.7793 153.485 89.7793 152.92C89.7793 152.216 90.0726 151.64 90.6593 151.192C91.246 150.744 92.062 150.52 93.1073 150.52C93.6513 150.52 94.1953 150.595 94.7393 150.744C95.2833 150.883 95.7313 151.069 96.0833 151.304L95.5873 152.216C94.894 151.736 94.0673 151.496 93.1073 151.496C92.382 151.496 91.8326 151.624 91.4593 151.88C91.0966 152.136 90.9153 152.472 90.9153 152.888C90.9153 153.208 91.0166 153.464 91.2193 153.656C91.4326 153.848 91.694 153.992 92.0033 154.088C92.3126 154.173 92.7393 154.264 93.2833 154.36C93.9553 154.488 94.494 154.616 94.8993 154.744C95.3046 154.872 95.6513 155.091 95.9393 155.4C96.2273 155.709 96.3713 156.136 96.3713 156.68C96.3713 157.416 96.062 158.003 95.4433 158.44C94.8353 158.867 93.9873 159.08 92.8993 159.08ZM105.803 155.144H98.7625C98.8265 156.019 99.1625 156.728 99.7705 157.272C100.379 157.805 101.147 158.072 102.075 158.072C102.597 158.072 103.077 157.981 103.515 157.8C103.952 157.608 104.331 157.331 104.651 156.968L105.291 157.704C104.917 158.152 104.448 158.493 103.883 158.728C103.328 158.963 102.715 159.08 102.043 159.08C101.179 159.08 100.411 158.899 99.7385 158.536C99.0772 158.163 98.5599 157.651 98.1865 157C97.8132 156.349 97.6265 155.613 97.6265 154.792C97.6265 153.971 97.8025 153.235 98.1545 152.584C98.5172 151.933 99.0079 151.427 99.6265 151.064C100.256 150.701 100.96 150.52 101.739 150.52C102.517 150.52 103.216 150.701 103.835 151.064C104.453 151.427 104.939 151.933 105.291 152.584C105.643 153.224 105.819 153.96 105.819 154.792L105.803 155.144ZM101.739 151.496C100.928 151.496 100.245 151.757 99.6905 152.28C99.1465 152.792 98.8372 153.464 98.7625 154.296H104.731C104.656 153.464 104.341 152.792 103.787 152.28C103.243 151.757 102.56 151.496 101.739 151.496ZM113.748 148.824V153.224H119.54V154.248H113.748V159H112.564V147.8H120.244V148.824H113.748ZM122.296 150.584H123.432V159H122.296V150.584ZM122.872 148.744C122.638 148.744 122.44 148.664 122.28 148.504C122.12 148.344 122.04 148.152 122.04 147.928C122.04 147.715 122.12 147.528 122.28 147.368C122.44 147.208 122.638 147.128 122.872 147.128C123.107 147.128 123.304 147.208 123.464 147.368C123.624 147.517 123.704 147.699 123.704 147.912C123.704 148.147 123.624 148.344 123.464 148.504C123.304 148.664 123.107 148.744 122.872 148.744ZM126.596 147.128H127.732V159H126.596V147.128ZM138.224 155.144H131.184C131.248 156.019 131.584 156.728 132.192 157.272C132.8 157.805 133.568 158.072 134.496 158.072C135.019 158.072 135.499 157.981 135.936 157.8C136.374 157.608 136.752 157.331 137.072 156.968L137.712 157.704C137.339 158.152 136.87 158.493 136.304 158.728C135.75 158.963 135.136 159.08 134.464 159.08C133.6 159.08 132.832 158.899 132.16 158.536C131.499 158.163 130.982 157.651 130.608 157C130.235 156.349 130.048 155.613 130.048 154.792C130.048 153.971 130.224 153.235 130.576 152.584C130.939 151.933 131.43 151.427 132.048 151.064C132.678 150.701 133.382 150.52 134.16 150.52C134.939 150.52 135.638 150.701 136.256 151.064C136.875 151.427 137.36 151.933 137.712 152.584C138.064 153.224 138.24 153.96 138.24 154.792L138.224 155.144ZM134.16 151.496C133.35 151.496 132.667 151.757 132.112 152.28C131.568 152.792 131.259 153.464 131.184 154.296H137.152C137.078 153.464 136.763 152.792 136.208 152.28C135.664 151.757 134.982 151.496 134.16 151.496Z" fill="#747C8B"/>
<path d="M99.6606 90.9915C99.6606 82.182 99.6606 73.5435 99.6606 64.7012C103.928 64.7012 108.185 64.7012 112.836 64.7012C106.103 55.7799 99.611 47.1809 92.957 38.3648C86.3097 47.171 79.8179 55.77 73.1275 64.6288C77.6794 64.6288 81.8935 64.6288 86.2236 64.6288C86.2236 73.458 86.2236 82.136 86.2236 90.9915C84.9259 90.9915 83.6746 90.9915 82.4199 90.9915C77.1795 90.9915 71.9391 91.0145 66.6954 90.9849C51.1794 90.906 39.1261 78.3807 40.0497 62.9945C40.5662 54.4251 44.7638 47.73 51.8911 42.8896C52.7816 42.2845 53.2186 41.7058 53.2815 40.5582C53.8708 29.5652 65.3348 22.2783 75.6104 26.3657C76.8451 26.8556 77.3616 26.655 78.0667 25.56C84.5915 15.3958 96.956 10.1673 108.542 12.5842C120.94 15.1689 130.272 24.6097 132.252 36.6319C132.536 38.355 132.103 40.3806 132.881 41.788C133.655 43.1888 135.635 43.8827 136.913 45.0698C144.848 52.4554 147.89 61.4622 144.828 71.9059C141.826 82.1458 134.649 88.3016 124.161 90.5574C122.612 90.8895 120.986 90.9586 119.394 90.9685C113.326 91.0145 107.258 90.9882 101.19 90.9882C100.703 90.9915 100.22 90.9915 99.6606 90.9915Z" fill="#828EA5"/>
<rect x="1" y="1" width="185" height="173" rx="20" stroke="black" stroke-opacity="0.08" stroke-width="1.5" stroke-miterlimit="16" stroke-linejoin="round" stroke-dasharray="6 8"/>
</svg>
