<svg width="20" height="22" viewBox="0 0 20 22" fill="none" xmlns="http://www.w3.org/2000/svg">
<path d="M2.14167 4.27037C1.66734 4.27037 1.25087 4.2718 0.835114 4.27037C0.322205 4.26824 -0.00354271 3.9872 2.90774e-05 3.55248C0.00360087 3.12132 0.328634 2.84882 0.848686 2.84811C2.31312 2.84669 3.77684 2.8474 5.24127 2.8474C5.382 2.8474 5.52345 2.8474 5.71346 2.8474C5.71346 2.38636 5.71132 1.95235 5.71418 1.51834C5.71918 0.598394 6.30995 0.00430262 7.23148 0.00287965C9.07666 -0.000677779 10.9218 -0.000677779 12.767 0.00145668C13.6864 0.00287965 14.2808 0.598394 14.2858 1.51621C14.2879 1.94168 14.2865 2.36715 14.2865 2.8474C14.4336 2.8474 14.5586 2.8474 14.6837 2.8474C16.0881 2.8474 17.4932 2.8474 18.8977 2.8474C19.6549 2.8474 19.9935 3.06369 19.9999 3.54964C20.0063 4.04697 19.6592 4.26966 18.8798 4.26966C18.559 4.26966 18.2383 4.26966 17.8583 4.26966C17.8583 4.4205 17.8583 4.55639 17.8583 4.693C17.859 9.376 17.8604 14.059 17.859 18.742C17.859 20.0639 17.0368 21.0629 15.7466 21.309C15.5845 21.3403 15.4159 21.3446 15.2501 21.3446C11.7505 21.346 8.25086 21.3468 4.75122 21.3439C3.23036 21.3425 2.14239 20.2589 2.14167 18.742C2.13953 14.0704 2.14167 9.39948 2.14239 4.72786C2.14167 4.58983 2.14167 4.45038 2.14167 4.27037ZM6.92144 12.0868C6.92073 12.0868 6.92073 12.0868 6.92002 12.0868C6.92002 13.45 6.91787 14.8132 6.92287 16.1764C6.92359 16.3393 6.9343 16.5136 6.99145 16.6623C7.10432 16.9555 7.44935 17.1212 7.75224 17.0636C8.09299 16.9989 8.33159 16.715 8.33873 16.3158C8.35159 15.6051 8.34659 14.8936 8.34659 14.1821C8.34659 12.1316 8.34516 10.0804 8.34444 8.02987C8.34444 7.95872 8.34873 7.88686 8.34159 7.81642C8.30158 7.40589 8.0037 7.11632 7.6258 7.11703C7.22362 7.11774 6.92573 7.41301 6.92359 7.85413C6.91644 9.26572 6.92144 10.6759 6.92144 12.0868ZM13.0785 12.1138C13.0778 12.1138 13.0771 12.1138 13.0764 12.1138C13.0764 10.7264 13.0792 9.33971 13.0749 7.95231C13.0735 7.42652 12.7956 7.11134 12.3606 7.11774C11.9448 7.12414 11.6555 7.44431 11.6548 7.93453C11.6505 10.7086 11.6512 13.4827 11.6548 16.2568C11.6555 16.7392 11.9541 17.0693 12.3634 17.0743C12.7978 17.0793 13.0771 16.7577 13.0778 16.239C13.0799 14.8644 13.0785 13.4891 13.0785 12.1138ZM7.15218 2.81965C9.06952 2.81965 10.954 2.81965 12.8356 2.81965C12.8356 2.34651 12.8356 1.90112 12.8356 1.45289C10.9304 1.45289 9.04666 1.45289 7.15218 1.45289C7.15218 1.9182 7.15218 2.35505 7.15218 2.81965Z" fill="#828EA5" fill-opacity="0.5"/>
</svg>
